<svg id="Ziel2" xmlns="http://www.w3.org/2000/svg" viewBox="0 0 600 424.4"><defs><style>.cls-1,.cls-3,.cls-5,.cls-7{fill:none;stroke-miterlimit:10;stroke-width:2px;}.cls-1{stroke:#006da7;}.cls-2{fill:#006da7;}.cls-3{stroke:#1d1d1b;}.cls-4{fill:#1d1d1b;}.cls-5{stroke:#039996;}.cls-6{fill:#039996;}.cls-7{stroke:#d72027;}.cls-8{fill:#d72027;}</style></defs><line class="cls-1" x1="591.8" y1="15.5" x2="591.8" y2="409.2"/><polygon class="cls-2" points="591.8 1.4 583.7 21.3 591.8 16.6 600 21.3 591.8 1.4"/><polygon class="cls-2" points="591.8 423.3 583.7 403.4 591.8 408.1 600 403.4 591.8 423.3"/><line class="cls-1" x1="496" y1="102.5" x2="496" y2="407.9"/><polygon class="cls-2" points="496 88.4 487.9 108.3 496 103.6 504.2 108.3 496 88.4"/><polygon class="cls-2" points="496 422 487.9 402.1 496 406.8 504.2 402.1 496 422"/><line class="cls-3" x1="19.6" y1="102.5" x2="19.6" y2="407.9"/><polygon class="cls-4" points="19.6 88.4 11.4 108.3 19.6 103.6 27.7 108.3 19.6 88.4"/><polygon class="cls-4" points="19.6 422 11.4 402.1 19.6 406.8 27.7 402.1 19.6 422"/><line class="cls-5" x1="89.3" y1="269.3" x2="89.3" y2="407.9"/><polygon class="cls-6" points="89.3 255.2 81.2 275.1 89.3 270.4 97.4 275.1 89.3 255.2"/><polygon class="cls-6" points="89.3 422 81.2 402.1 89.3 406.8 97.4 402.1 89.3 422"/><line class="cls-7" x1="89.3" y1="102.5" x2="89.3" y2="241.1"/><polygon class="cls-8" points="89.3 88.4 81.2 108.3 89.3 103.6 97.4 108.3 89.3 88.4"/><polygon class="cls-8" points="89.3 255.2 81.2 235.3 89.3 240 97.4 235.3 89.3 255.2"/><line class="cls-1" x1="496" y1="14.1" x2="496" y2="74.1"/><polygon class="cls-2" points="496 0 487.9 19.9 496 15.2 504.2 19.9 496 0"/><polygon class="cls-2" points="496 88.2 487.9 68.3 496 73.1 504.2 68.3 496 88.2"/><path class="cls-4" d="M320.3,254.7h1.3l1.1,3.3.4,1.3h0l.4-1.3,1.1-3.3h1.2v7.9h-.9v-4c0-.8.1-2.1.1-2.8h0l-.5,1.6-1.1,3.1h-.7l-1.1-3.1-.5-1.6h0a24.6,24.6,0,0,1,.2,2.8v4h-1Z"/><path class="cls-4" d="M327.4,259.6a2.8,2.8,0,0,1,2.9-3,3.1,3.1,0,1,1-2.9,3Zm4.7,0c0-1.3-.7-2.2-1.8-2.2a2,2,0,0,0-1.9,2.2c0,1.4.8,2.3,1.9,2.3S332.1,261,332.1,259.6Zm-3.6-4.8a.6.6,0,0,1,.6-.6.7.7,0,0,1,.7.6.7.7,0,0,1-.7.7C328.7,255.5,328.5,255.2,328.5,254.8Zm2.3,0a.6.6,0,0,1,.6-.6.7.7,0,0,1,.7.6.7.7,0,0,1-.7.7A.7.7,0,0,1,330.8,254.8Z"/><path class="cls-4" d="M334.7,263.6a1.9,1.9,0,0,1,1-1.3h0a1.2,1.2,0,0,1-.6-1,1.5,1.5,0,0,1,.7-1.1h0a1.8,1.8,0,0,1-.7-1.5,2.1,2.1,0,0,1,2.3-2.1h3.2v.8h-1.5a1.7,1.7,0,0,1,.5,1.2,2.1,2.1,0,0,1-2.2,2l-1-.2c-.3.2-.5.4-.5.7s.5.6,1.2.6h1.4c1.4,0,2.2.4,2.2,1.4s-1.3,2-3.3,2S334.7,264.7,334.7,263.6Zm5-.2c0-.6-.4-.8-1.3-.8h-2.1c-.5.3-.7.6-.7.9s.7,1,1.9,1S339.7,264,339.7,263.4Zm-1-4.7a1.3,1.3,0,0,0-1.3-1.4,1.3,1.3,0,0,0-1.4,1.4,1.3,1.3,0,0,0,1.4,1.3A1.3,1.3,0,0,0,338.7,258.7Z"/><path class="cls-4" d="M344,260.6v-5.8h-1.9V254H345v6.7a1.1,1.1,0,0,0,1.2,1.2l1.1-.3.2.7a2.6,2.6,0,0,1-1.5.4A1.8,1.8,0,0,1,344,260.6Z"/><path class="cls-4" d="M352.1,257.5h-2.7v-.8h3.7v5.9h-1Zm-.4-2.8a.7.7,0,0,1,.8-.7.7.7,0,0,1,.7.7.7.7,0,0,1-.7.8A.7.7,0,0,1,351.7,254.7Z"/><path class="cls-4" d="M356.4,259.6a3,3,0,0,1,3.3-3,3.3,3.3,0,0,1,2.1.8l-.5.7a2.1,2.1,0,0,0-1.6-.7,2.1,2.1,0,0,0-2.2,2.2,2.1,2.1,0,0,0,2.2,2.3,2.5,2.5,0,0,0,1.8-.8l.4.7a3.2,3.2,0,0,1-2.3.9A3,3,0,0,1,356.4,259.6Z"/><path class="cls-4" d="M363.8,254h1v3.7h.1a2.9,2.9,0,0,1,2.1-1.1c1.4,0,2.1.8,2.1,2.3v3.7h-1v-3.5c0-1.1-.4-1.7-1.4-1.7s-1.1.4-1.8,1.1v4.1h-1Z"/><path class="cls-4" d="M370.7,259.6a2.9,2.9,0,0,1,3-3,2.4,2.4,0,0,1,2.6,2.7v.6h-4.6a2.1,2.1,0,0,0,2.3,2,3.1,3.1,0,0,0,1.7-.5l.4.6a3.9,3.9,0,0,1-2.3.7A2.9,2.9,0,0,1,370.7,259.6Zm1-.5h3.7a1.5,1.5,0,0,0-1.7-1.7A1.9,1.9,0,0,0,371.7,259.1Z"/><path class="cls-4" d="M322.5,269.1h1.1l2.7,7.9h-1.1l-.7-2.4h-2.9l-.7,2.4h-1Zm-.6,4.6h2.3l-.3-1.2a19.8,19.8,0,0,1-.8-2.6H323c-.2.9-.5,1.8-.7,2.6Z"/><path class="cls-4" d="M327.8,271.1h.8v1h0a3.3,3.3,0,0,1,2.2-1.1c1.4,0,2.1.8,2.1,2.3V277h-1v-3.5c0-1.1-.4-1.7-1.4-1.7s-1.1.4-1.8,1.1V277h-1Z"/><path class="cls-4" d="M334,271.1h1l.7,3.4c.1.6.1,1.1.2,1.6h.1a9,9,0,0,1,.3-1.6l.7-3h1l.7,3c.1.6.3,1.1.4,1.6h0l.3-1.6.7-3.4h.9l-1.3,5.9h-1.2l-.7-2.8a16.4,16.4,0,0,1-.3-1.8h0a16.4,16.4,0,0,1-.3,1.8l-.7,2.8h-1.3Z"/><path class="cls-4" d="M341.9,274a2.9,2.9,0,0,1,3-3,2.5,2.5,0,0,1,2.6,2.7v.6h-4.6a2.1,2.1,0,0,0,2.3,2,3.1,3.1,0,0,0,1.7-.5l.4.6a3.9,3.9,0,0,1-2.3.7A2.9,2.9,0,0,1,341.9,274Zm1-.5h3.7c-.1-1.2-.7-1.7-1.7-1.7A1.9,1.9,0,0,0,342.9,273.5Z"/><path class="cls-4" d="M349.1,276.2l.5-.7a3.9,3.9,0,0,0,2.5.8c1,0,1.5-.4,1.5-.9s-.2-.7-1.8-1.1-2.3-.8-2.3-1.7.8-1.6,2.4-1.6a4.5,4.5,0,0,1,2.4.7l-.5.7a3.5,3.5,0,0,0-2-.7c-1,0-1.3.4-1.3.9s.5.7,1.7,1,2.4.9,2.4,1.8-.9,1.7-2.6,1.7A5.3,5.3,0,0,1,349.1,276.2Z"/><path class="cls-4" d="M356.3,274a2.9,2.9,0,0,1,3-3,2.4,2.4,0,0,1,2.6,2.7v.6h-4.6a2.1,2.1,0,0,0,2.3,2,3.1,3.1,0,0,0,1.7-.5l.4.6a3.9,3.9,0,0,1-2.3.7A2.9,2.9,0,0,1,356.3,274Zm1-.5H361a1.5,1.5,0,0,0-1.7-1.7A1.9,1.9,0,0,0,357.3,273.5Z"/><path class="cls-4" d="M363.8,271.1h.8v1h0a3.3,3.3,0,0,1,2.2-1.1c1.4,0,2.1.8,2.1,2.3V277h-1v-3.5c0-1.1-.4-1.7-1.4-1.7s-1.1.4-1.8,1.1V277h-1Z"/><path class="cls-4" d="M370.9,272.6h5.2v.8h-5.2Z"/><path class="cls-4" d="M320.6,282.8h1v3.7h.1a2.9,2.9,0,0,1,2.1-1.1c1.4,0,2.1.8,2.1,2.3v3.7h-1v-3.5c0-1.1-.4-1.7-1.4-1.7s-1.1.4-1.8,1.1v4.1h-1Z"/><path class="cls-4" d="M327.5,288.4a2.9,2.9,0,0,1,3-3,2.5,2.5,0,0,1,2.6,2.7v.6h-4.6a2.1,2.1,0,0,0,2.3,2,3.1,3.1,0,0,0,1.7-.5l.4.6a3.9,3.9,0,0,1-2.3.7A2.9,2.9,0,0,1,327.5,288.4Zm1-.5h3.7c-.1-1.2-.7-1.7-1.7-1.7A1.9,1.9,0,0,0,328.5,287.9Z"/><path class="cls-4" d="M337.7,286.3H335v-.8h3.7v5.9h-1Zm-.4-2.8a.7.7,0,0,1,.8-.7.7.7,0,0,1,.7.7.7.7,0,0,1-.7.8A.7.7,0,0,1,337.3,283.5Z"/><path class="cls-4" d="M343.6,289.1v-2.8h-1.7v-.7h1.7v-1.8h.8v1.8h2.9v.8h-2.9v2.8c0,1,.4,1.6,1.5,1.6a2.9,2.9,0,0,0,1.4-.3l.2.7a4.8,4.8,0,0,1-1.8.4C344.1,291.5,343.6,290.5,343.6,289.1Z"/><path class="cls-4" d="M349.1,290.6l.5-.7a3.9,3.9,0,0,0,2.5.8c1,0,1.5-.4,1.5-.9s-.2-.7-1.8-1.1-2.3-.8-2.3-1.7.8-1.6,2.4-1.6a4.5,4.5,0,0,1,2.4.7l-.5.7a3.5,3.5,0,0,0-2-.7c-1,0-1.3.4-1.3.9s.5.7,1.7,1,2.4.9,2.4,1.8-.9,1.7-2.6,1.7A5.3,5.3,0,0,1,349.1,290.6Z"/><path class="cls-4" d="M356.3,290.8l4-4.5h-3.5v-.8h4.9v.5l-4,4.5h4.1v.9h-5.5Z"/><path class="cls-4" d="M363.5,288.4a2.9,2.9,0,0,1,3-3,2.4,2.4,0,0,1,2.6,2.7v.6h-4.6a2.1,2.1,0,0,0,2.3,2,3.1,3.1,0,0,0,1.7-.5l.4.6a3.9,3.9,0,0,1-2.3.7A2.9,2.9,0,0,1,363.5,288.4Zm1-.5h3.7a1.5,1.5,0,0,0-1.7-1.7A1.9,1.9,0,0,0,364.5,287.9Z"/><path class="cls-4" d="M373.7,286.3H371v-.8h3.7v5.9h-1Zm-.4-2.8a.7.7,0,0,1,.8-.7.7.7,0,0,1,.7.7.7.7,0,0,1-.7.8A.7.7,0,0,1,373.3,283.5Z"/><path class="cls-4" d="M379.6,289.1v-2.8h-1.7v-.7h1.7v-1.8h.8v1.8h2.9v.8h-2.9v2.8c0,1,.4,1.6,1.5,1.6a2.9,2.9,0,0,0,1.4-.3l.2.7a4.8,4.8,0,0,1-1.8.4C380.1,291.5,379.6,290.5,379.6,289.1Z"/><path class="cls-4" d="M320.5,312.3h1.1l2.5,4.9.7,1.7h.1a21.1,21.1,0,0,1-.2-2.5v-4.1h1v7.9h-1.1l-2.5-5-.8-1.6h0c0,.8.1,1.6.1,2.4v4.2h-.9Z"/><path class="cls-4" d="M327.5,317.2a2.9,2.9,0,0,1,3-3,2.5,2.5,0,0,1,2.6,2.7v.6h-4.6a2.1,2.1,0,0,0,2.3,2,3.1,3.1,0,0,0,1.7-.5l.4.6a3.9,3.9,0,0,1-2.3.7A2.9,2.9,0,0,1,327.5,317.2Zm1-.5h3.7c-.1-1.2-.7-1.7-1.7-1.7A1.9,1.9,0,0,0,328.5,316.7Z"/><path class="cls-4" d="M336.4,317.9v-2.8h-1.7v-.7h1.7v-1.8h.8v1.8h2.9v.8h-2.9v2.8c0,1,.4,1.6,1.5,1.6a2.9,2.9,0,0,0,1.4-.3l.2.7a4.8,4.8,0,0,1-1.8.4C336.9,320.3,336.4,319.3,336.4,317.9Z"/><path class="cls-4" d="M343.6,317.9v-2.8h-1.7v-.7h1.7v-1.8h.8v1.8h2.9v.8h-2.9v2.8c0,1,.4,1.6,1.5,1.6a2.9,2.9,0,0,0,1.4-.3l.2.7a4.8,4.8,0,0,1-1.8.4C344.1,320.3,343.6,319.3,343.6,317.9Z"/><path class="cls-4" d="M349,317.2a2.8,2.8,0,0,1,2.9-3,3.1,3.1,0,1,1-2.9,3Zm4.7,0c0-1.3-.7-2.2-1.8-2.2a2,2,0,0,0-1.9,2.2c0,1.4.8,2.3,1.9,2.3S353.7,318.6,353.7,317.2Z"/><path class="cls-4" d="M322.5,326.7h1.1l2.7,7.9h-1.1l-.7-2.4h-2.9l-.7,2.4h-1Zm-.6,4.6h2.3l-.3-1.2a19.8,19.8,0,0,1-.8-2.6H323c-.2.9-.5,1.8-.7,2.6Z"/><path class="cls-4" d="M328.4,328.7h.8v1.4h.1a3.1,3.1,0,0,1,2.6-1.5,2,2,0,0,1,1.1.2l-.2.9a2,2,0,0,0-1.1-.2,2.7,2.7,0,0,0-2.4,1.6v3.5h-1Z"/><path class="cls-4" d="M335.9,333.9h0v.7H335V326h1v3.5h.1a2.6,2.6,0,0,1,1.9-.9c1.6,0,2.5,1.1,2.5,2.9s-1.3,3.2-2.7,3.2A3.1,3.1,0,0,1,335.9,333.9Zm3.4-2.3c0-1.3-.4-2.2-1.6-2.2a2.6,2.6,0,0,0-1.7.9v2.9a2.3,2.3,0,0,0,1.6.7C338.6,333.9,339.3,333,339.3,331.6Z"/><path class="cls-4" d="M341.9,331.6a2.9,2.9,0,0,1,3-3,2.5,2.5,0,0,1,2.6,2.7v.6h-4.6a2.1,2.1,0,0,0,2.3,2,3.1,3.1,0,0,0,1.7-.5l.4.6a3.9,3.9,0,0,1-2.3.7A2.9,2.9,0,0,1,341.9,331.6Zm1-.5h3.7c-.1-1.2-.7-1.7-1.7-1.7A1.9,1.9,0,0,0,342.9,331.1Z"/><path class="cls-4" d="M352.1,329.5h-2.7v-.8h3.7v5.9h-1Zm-.4-2.8a.7.7,0,0,1,.8-.7.7.7,0,0,1,.7.7.7.7,0,0,1-.7.8A.7.7,0,0,1,351.7,326.7Z"/><path class="cls-4" d="M358,332.3v-2.8h-1.7v-.7H358v-1.8h.8v1.8h2.9v.8h-2.9v2.8c0,1,.4,1.6,1.5,1.6a2.9,2.9,0,0,0,1.4-.3l.2.7a4.8,4.8,0,0,1-1.8.4C358.5,334.7,358,333.7,358,332.3Z"/><path class="cls-4" d="M363.5,333.8l.5-.7a3.9,3.9,0,0,0,2.5.8c1,0,1.5-.4,1.5-.9s-.2-.7-1.8-1.1-2.3-.8-2.3-1.7.8-1.6,2.4-1.6a4.5,4.5,0,0,1,2.4.7l-.5.7a3.5,3.5,0,0,0-2-.7c-1,0-1.3.4-1.3.9s.5.7,1.7,1,2.4.9,2.4,1.8-.9,1.7-2.6,1.7A5.3,5.3,0,0,1,363.5,333.8Z"/><path class="cls-4" d="M370.7,334l4-4.5h-3.5v-.8h4.9v.5l-4,4.5h4.1v.9h-5.5Z"/><path class="cls-4" d="M377.9,331.6a2.9,2.9,0,0,1,3-3,2.4,2.4,0,0,1,2.6,2.7v.6h-4.6a2.1,2.1,0,0,0,2.3,2,3.1,3.1,0,0,0,1.7-.5l.4.6a3.9,3.9,0,0,1-2.3.7A2.9,2.9,0,0,1,377.9,331.6Zm1-.5h3.7a1.5,1.5,0,0,0-1.7-1.7A1.9,1.9,0,0,0,378.9,331.1Z"/><path class="cls-4" d="M388.1,329.5h-2.7v-.8h3.7v5.9h-1Zm-.4-2.8a.7.7,0,0,1,.8-.7.7.7,0,0,1,.7.7.7.7,0,0,1-.7.8A.7.7,0,0,1,387.7,326.7Z"/><path class="cls-4" d="M394,332.3v-2.8h-1.7v-.7H394v-1.8h.8v1.8h2.9v.8h-2.9v2.8c0,1,.4,1.6,1.5,1.6a2.9,2.9,0,0,0,1.4-.3l.2.7a4.8,4.8,0,0,1-1.8.4C394.5,334.7,394,333.7,394,332.3Z"/><path class="cls-4" d="M138.1,267.4h1v4h.1l3.3-4h1.1l-2.5,3,2.8,4.9h-1.1l-2.3-4.1-1.4,1.6v2.5h-1Z"/><path class="cls-4" d="M145.1,273.1v-3.6h1V273c0,1.1.3,1.6,1.3,1.6a2.1,2.1,0,0,0,1.8-1.1v-4h1v5.8h-.8v-1h0a2.8,2.8,0,0,1-2.2,1.1C145.7,275.4,145.1,274.6,145.1,273.1Z"/><path class="cls-4" d="M152.5,269.5h.8v1h0a2.9,2.9,0,0,1,2.2-1.2c1.4,0,2,.8,2,2.4v3.6h-1v-3.5c0-1.1-.3-1.6-1.3-1.6a2.2,2.2,0,0,0-1.8,1v4.1h-1Z"/><path class="cls-4" d="M159.3,272.4c0-1.9,1.2-3.1,2.6-3.1a2.5,2.5,0,0,1,1.8.8h0v-3.3h.9v8.5h-.8v-.8h0a2.8,2.8,0,0,1-1.9.9C160.3,275.4,159.3,274.3,159.3,272.4Zm4.4,1.3v-2.9a2.3,2.3,0,0,0-1.6-.6c-1,0-1.8.8-1.8,2.2s.6,2.2,1.7,2.2A2.4,2.4,0,0,0,163.7,273.7Z"/><path class="cls-4" d="M166.6,272.4a3,3,0,0,1,2.9-3.1,2.5,2.5,0,0,1,2.7,2.8v.6h-4.6a2,2,0,0,0,2.2,1.9,3.5,3.5,0,0,0,1.8-.5l.4.6a3.9,3.9,0,0,1-2.3.7A2.9,2.9,0,0,1,166.6,272.4Zm1-.5h3.7c-.1-1.2-.7-1.8-1.7-1.8A2,2,0,0,0,167.6,271.9Z"/><path class="cls-4" d="M174.1,269.5h.8v1h0a2.9,2.9,0,0,1,2.2-1.2c1.4,0,2,.8,2,2.4v3.6h-1v-3.5c0-1.1-.3-1.6-1.3-1.6a2.2,2.2,0,0,0-1.8,1v4.1h-1Z"/><path class="cls-4" d="M181.1,273.8c0-1.3,1.2-2,4.3-2.2a1.5,1.5,0,0,0-1.6-1.5,4,4,0,0,0-2,.7l-.4-.6a5,5,0,0,1,2.6-.9,2.1,2.1,0,0,1,2.3,2.4v3.6h-.8v-.8h0a3.9,3.9,0,0,1-2.3.9C182,275.4,181.1,274.8,181.1,273.8Zm4.3,0v-1.6c-2.5.3-3.3.7-3.3,1.5s.6.9,1.3.9A3.7,3.7,0,0,0,185.4,273.8Z"/><path class="cls-4" d="M188.3,273.1v-3.6h1V273c0,1.1.3,1.6,1.3,1.6a2.1,2.1,0,0,0,1.8-1.1v-4h1v5.8h-.8v-1h0a2.8,2.8,0,0,1-2.2,1.1C188.9,275.4,188.3,274.6,188.3,273.1Z"/><path class="cls-4" d="M197.5,270.3h-1.7v-.8h1.7V269a2.1,2.1,0,0,1,2.3-2.4,5.1,5.1,0,0,1,1.7.3l-.2.8a3.5,3.5,0,0,0-1.4-.3,1.4,1.4,0,0,0-1.5,1.5v.6h2.5v.8h-2.5v5h-.9Z"/><path class="cls-4" d="M204.2,273v-2.7h-1.6v-.8h1.7v-1.9h.8v1.9h2.9v.8h-2.9V273c0,1.1.4,1.6,1.5,1.6l1.4-.2.2.7a4.8,4.8,0,0,1-1.8.3C204.8,275.4,204.2,274.5,204.2,273Z"/><path class="cls-4" d="M210.7,269.5h.8v1.3h0a3.4,3.4,0,0,1,2.6-1.5,2.4,2.4,0,0,1,1.2.3l-.2.8-1.1-.2a2.8,2.8,0,0,0-2.4,1.7v3.4h-1Z"/><path class="cls-4" d="M217.1,273.8c0-1.3,1.2-2,4.3-2.2a1.5,1.5,0,0,0-1.6-1.5,4,4,0,0,0-2,.7l-.4-.6a5,5,0,0,1,2.6-.9,2.1,2.1,0,0,1,2.3,2.4v3.6h-.8v-.8h0a3.9,3.9,0,0,1-2.3.9C218,275.4,217.1,274.8,217.1,273.8Zm4.3,0v-1.6c-2.5.3-3.3.7-3.3,1.5s.6.9,1.3.9A3.7,3.7,0,0,0,221.4,273.8Zm-3.2-6.2a.7.7,0,0,1,.6-.7.7.7,0,0,1,.7.7c0,.4-.3.6-.7.6A.6.6,0,0,1,218.2,267.6Zm2.3,0a.7.7,0,0,1,.7-.7.7.7,0,0,1,.6.7.6.6,0,0,1-.6.6C220.8,268.2,220.5,268,220.5,267.6Z"/><path class="cls-4" d="M224.2,276.4a1.6,1.6,0,0,1,1-1.3h0a.9.9,0,0,1-.6-.9,1.3,1.3,0,0,1,.7-1.1h0a1.8,1.8,0,0,1-.7-1.5,2.1,2.1,0,0,1,2.2-2.1l.9.2h2.4v.8h-1.5a1.4,1.4,0,0,1,.5,1.1,2,2,0,0,1-2.3,2,1.5,1.5,0,0,1-.9-.2c-.3.2-.5.4-.5.7s.5.7,1.2.7h1.3c1.5,0,2.2.4,2.2,1.3s-1.2,2.1-3.2,2.1S224.2,277.4,224.2,276.4Zm5-.3c0-.6-.5-.7-1.4-.7h-2c-.5.3-.7.6-.7,1s.6,1,1.9,1S229.2,276.7,229.2,276.1Zm-1-4.7a1.4,1.4,0,0,0-1.4-1.4,1.4,1.4,0,0,0,0,2.8A1.4,1.4,0,0,0,228.2,271.4Z"/><path class="cls-4" d="M231.4,272.4a3,3,0,0,1,2.9-3.1,2.5,2.5,0,0,1,2.7,2.8v.6h-4.6a2,2,0,0,0,2.2,1.9,3.5,3.5,0,0,0,1.8-.5l.4.6a3.9,3.9,0,0,1-2.3.7A2.9,2.9,0,0,1,231.4,272.4Zm1-.5h3.7c-.1-1.2-.7-1.8-1.7-1.8A2,2,0,0,0,232.4,271.9Z"/><path class="cls-4" d="M138.1,288.8h2v-6.1h-2v-.9H143v.9h-1.9v6.1H143v.9h-4.9Z"/><path class="cls-4" d="M145.3,283.9h.8v1h0a2.9,2.9,0,0,1,2.2-1.2c1.4,0,2,.8,2,2.4v3.6h-1v-3.5c0-1.1-.3-1.6-1.3-1.6a2.2,2.2,0,0,0-1.8,1v4.1h-1Z"/><path class="cls-4" d="M153.8,287.4v-2.7h-1.6v-.8h1.7V282h.8v1.9h2.9v.8h-2.9v2.7c0,1.1.4,1.6,1.5,1.6l1.4-.2.2.7a4.8,4.8,0,0,1-1.8.3C154.4,289.8,153.8,288.9,153.8,287.4Z"/><path class="cls-4" d="M159.4,286.8a3,3,0,0,1,2.9-3.1,2.5,2.5,0,0,1,2.7,2.8v.6h-4.6a2,2,0,0,0,2.2,1.9,3.5,3.5,0,0,0,1.8-.5l.4.6a3.9,3.9,0,0,1-2.3.7A2.9,2.9,0,0,1,159.4,286.8Zm1-.5h3.7c-.1-1.2-.7-1.8-1.7-1.8A2,2,0,0,0,160.4,286.3Z"/><path class="cls-4" d="M167.5,283.9h.8v1.3h0a3.4,3.4,0,0,1,2.6-1.5,2.4,2.4,0,0,1,1.2.3l-.2.8-1.1-.2a2.8,2.8,0,0,0-2.4,1.7v3.4h-1Z"/><path class="cls-4" d="M174.1,283.9h.8v1h0a2.9,2.9,0,0,1,2.2-1.2c1.4,0,2,.8,2,2.4v3.6h-1v-3.5c0-1.1-.3-1.6-1.3-1.6a2.2,2.2,0,0,0-1.8,1v4.1h-1Z"/><path class="cls-4" d="M181,286.8a3,3,0,0,1,2.9-3.1,2.5,2.5,0,0,1,2.7,2.8v.6H182a2,2,0,0,0,2.2,1.9,3.5,3.5,0,0,0,1.8-.5l.4.6a3.9,3.9,0,0,1-2.3.7A2.9,2.9,0,0,1,181,286.8Zm1-.5h3.7c-.1-1.2-.7-1.8-1.7-1.8A2,2,0,0,0,182,286.3Z"/><path class="cls-4" d="M197.6,281.8h1.1l2.7,7.9h-1.1l-.7-2.4h-2.9l-.7,2.4h-1.1Zm-.6,4.7h2.3l-.4-1.2c-.2-.9-.5-1.7-.7-2.7h-.1a21.3,21.3,0,0,1-.8,2.7Z"/><path class="cls-4" d="M202.7,287.5v-3.6h1v3.5c0,1.1.3,1.6,1.3,1.6a2.1,2.1,0,0,0,1.8-1.1v-4h1v5.8H207v-1h0a2.8,2.8,0,0,1-2.2,1.1C203.3,289.8,202.7,289,202.7,287.5Z"/><path class="cls-4" d="M211.9,284.7h-1.7v-.8h1.7v-.5a2.1,2.1,0,0,1,2.3-2.4,5.1,5.1,0,0,1,1.7.3l-.2.8a3.5,3.5,0,0,0-1.4-.3,1.4,1.4,0,0,0-1.5,1.5v.6h2.5v.8h-2.5v5h-.9Z"/><path class="cls-4" d="M218.6,287.4v-2.7H217v-.8h1.7V282h.8v1.9h2.9v.8h-2.9v2.7c0,1.1.4,1.6,1.5,1.6l1.4-.2.2.7a4.8,4.8,0,0,1-1.8.3C219.2,289.8,218.6,288.9,218.6,287.4Z"/><path class="cls-4" d="M225.1,283.9h.8v1.3h0a3.4,3.4,0,0,1,2.6-1.5,2.4,2.4,0,0,1,1.2.3l-.2.8-1.1-.2a2.8,2.8,0,0,0-2.4,1.7v3.4h-1Z"/><path class="cls-4" d="M231.5,288.2c0-1.3,1.2-2,4.3-2.2a1.5,1.5,0,0,0-1.6-1.5,4.3,4.3,0,0,0-2,.7l-.4-.6a5,5,0,0,1,2.6-.9,2.1,2.1,0,0,1,2.3,2.4v3.6h-.8v-.8h0a3.9,3.9,0,0,1-2.3.9C232.4,289.8,231.5,289.2,231.5,288.2Zm4.3,0v-1.5c-2.5.2-3.3.6-3.3,1.4s.6.9,1.3.9A3.7,3.7,0,0,0,235.8,288.2Zm-3.2-6.2a.7.7,0,0,1,.6-.7.7.7,0,0,1,.7.7c0,.4-.3.6-.7.6A.6.6,0,0,1,232.6,282Zm2.3,0a.7.7,0,0,1,.7-.7.7.7,0,0,1,.6.7.6.6,0,0,1-.6.6C235.2,282.6,234.9,282.4,234.9,282Z"/><path class="cls-4" d="M238.6,290.8a1.6,1.6,0,0,1,1-1.3h0a.9.9,0,0,1-.6-.9,1.3,1.3,0,0,1,.7-1.1h0a1.8,1.8,0,0,1-.7-1.5,2.1,2.1,0,0,1,2.2-2.1l.9.2h2.4v.8H243a1.4,1.4,0,0,1,.5,1.1,2,2,0,0,1-2.3,2,1.6,1.6,0,0,1-.9-.2c-.3.2-.5.4-.5.7s.5.7,1.2.7h1.3c1.5,0,2.2.4,2.2,1.3s-1.2,2.1-3.2,2.1S238.6,291.8,238.6,290.8Zm5-.3c0-.6-.5-.7-1.4-.7h-2c-.5.3-.7.6-.7,1s.6,1,1.9,1S243.6,291.1,243.6,290.5Zm-1-4.7a1.4,1.4,0,0,0-1.4-1.4,1.3,1.3,0,0,0-1.3,1.4,1.3,1.3,0,0,0,1.3,1.4A1.3,1.3,0,0,0,242.6,285.8Z"/><path class="cls-4" d="M245.8,286.8a3,3,0,0,1,3-3.1,2.5,2.5,0,0,1,2.6,2.8v.6h-4.6A2,2,0,0,0,249,289a3.5,3.5,0,0,0,1.8-.5l.4.6a3.9,3.9,0,0,1-2.3.7A2.9,2.9,0,0,1,245.8,286.8Zm1-.5h3.7c-.1-1.2-.7-1.8-1.7-1.8A2,2,0,0,0,246.8,286.3Z"/><path class="cls-4" d="M138.6,310.6h4.8v.9h-3.8v2.6h3.2v.9h-3.2v3.5h-1Z"/><path class="cls-4" d="M145,315.6a3,3,0,0,1,2.9-3.1,2.5,2.5,0,0,1,2.7,2.8v.6H146a2,2,0,0,0,2.2,1.9,3.5,3.5,0,0,0,1.8-.5l.4.6a3.9,3.9,0,0,1-2.3.7A2.9,2.9,0,0,1,145,315.6Zm1-.5h3.7c-.1-1.2-.7-1.8-1.7-1.8A2,2,0,0,0,146,315.1Z"/><path class="cls-4" d="M153.1,312.7h.8V314h0a3.4,3.4,0,0,1,2.6-1.5,2.4,2.4,0,0,1,1.2.3l-.2.8-1.1-.2a2.8,2.8,0,0,0-2.4,1.7v3.4h-1Z"/><path class="cls-4" d="M161,316.2v-2.7h-1.6v-.8h1.7v-1.9h.8v1.9h2.9v.8H162v2.7c0,1.1.4,1.6,1.5,1.6l1.4-.2.2.7a4.8,4.8,0,0,1-1.8.3C161.6,318.6,161,317.7,161,316.2Z"/><path class="cls-4" d="M169.5,313.5h-2.7v-.8h3.7v5.8h-1Zm-.4-2.8a.8.8,0,0,1,.8-.8.7.7,0,0,1,.8.8.7.7,0,0,1-.8.7A.8.8,0,0,1,169.1,310.7Z"/><path class="cls-4" d="M173.8,319.6a1.6,1.6,0,0,1,1-1.3h0a.9.9,0,0,1-.6-.9,1.3,1.3,0,0,1,.7-1.1h0a1.8,1.8,0,0,1-.7-1.5,2.1,2.1,0,0,1,2.2-2.1l.9.2h2.4v.8h-1.5a1.4,1.4,0,0,1,.5,1.1,2,2,0,0,1-2.3,2,1.5,1.5,0,0,1-.9-.2c-.3.2-.5.4-.5.7s.5.7,1.2.7h1.3c1.5,0,2.2.4,2.2,1.3s-1.2,2.1-3.2,2.1S173.8,320.6,173.8,319.6Zm5-.3c0-.6-.5-.7-1.4-.7h-2c-.5.3-.7.6-.7,1s.6,1,1.9,1S178.8,319.9,178.8,319.3Zm-1-4.7a1.4,1.4,0,0,0-1.4-1.4,1.3,1.3,0,0,0-1.3,1.4,1.3,1.3,0,0,0,1.3,1.4A1.3,1.3,0,0,0,177.8,314.6Z"/><path class="cls-4" d="M181.1,316.3v-3.6h1v3.5c0,1.1.3,1.6,1.3,1.6a2.1,2.1,0,0,0,1.8-1.1v-4h1v5.8h-.8v-1h0a2.8,2.8,0,0,1-2.2,1.1C181.7,318.6,181.1,317.8,181.1,316.3Z"/><path class="cls-4" d="M188.5,312.7h.8v1h0a2.9,2.9,0,0,1,2.2-1.2c1.4,0,2,.8,2,2.4v3.6h-1V315c0-1.1-.3-1.6-1.3-1.6a2.2,2.2,0,0,0-1.8,1v4.1h-1Z"/><path class="cls-4" d="M195.4,319.6a1.6,1.6,0,0,1,1-1.3h0a.9.9,0,0,1-.6-.9,1.3,1.3,0,0,1,.7-1.1h0a1.8,1.8,0,0,1-.7-1.5,2.1,2.1,0,0,1,2.2-2.1l.9.2h2.4v.8h-1.5a1.4,1.4,0,0,1,.5,1.1,2,2,0,0,1-2.3,2,1.5,1.5,0,0,1-.9-.2c-.3.2-.5.4-.5.7s.5.7,1.2.7h1.3c1.5,0,2.2.4,2.2,1.3s-1.2,2.1-3.2,2.1S195.4,320.6,195.4,319.6Zm5-.3c0-.6-.5-.7-1.4-.7h-2c-.5.3-.7.6-.7,1s.6,1,1.9,1S200.4,319.9,200.4,319.3Zm-1-4.7a1.4,1.4,0,0,0-1.4-1.4,1.3,1.3,0,0,0-1.3,1.4A1.3,1.3,0,0,0,198,316,1.3,1.3,0,0,0,199.4,314.6Z"/><path class="cls-4" d="M202.6,317.7l.5-.6a3.7,3.7,0,0,0,2.5.8c1,0,1.5-.4,1.5-.9s-.3-.8-1.9-1.1-2.2-.8-2.2-1.7.8-1.7,2.4-1.7a4,4,0,0,1,2.3.8l-.4.6a3.4,3.4,0,0,0-2-.6c-1,0-1.3.4-1.3.8s.5.8,1.7,1,2.4.9,2.4,1.8-1,1.7-2.6,1.7A5,5,0,0,1,202.6,317.7Z"/><path class="cls-4" d="M211.9,316.5v-5.7h-2V310h3v6.6a1.1,1.1,0,0,0,1.2,1.2l1-.2.3.7a3.8,3.8,0,0,1-1.6.3C212.6,318.6,211.9,317.9,211.9,316.5Z"/><path class="cls-4" d="M216.9,315.6a2.9,2.9,0,1,1,5.7,0,2.9,2.9,0,1,1-5.7,0Zm4.7,0c0-1.4-.7-2.3-1.8-2.3s-1.9.9-1.9,2.3.7,2.2,1.9,2.2S221.6,316.9,221.6,315.6Z"/><path class="cls-4" d="M224.5,310h1v3.7h0a2.9,2.9,0,0,1,2.2-1.2c1.4,0,2,.8,2,2.4v3.6h-1V315c0-1.1-.3-1.6-1.3-1.6a2.2,2.2,0,0,0-1.8,1v4.1h-1Z"/><path class="cls-4" d="M231.7,312.7h.8v1h0a2.9,2.9,0,0,1,2.2-1.2c1.4,0,2,.8,2,2.4v3.6h-1V315c0-1.1-.3-1.6-1.3-1.6a2.2,2.2,0,0,0-1.8,1v4.1h-1Z"/><path class="cls-4" d="M238.6,317.7l.5-.6a3.7,3.7,0,0,0,2.5.8c1,0,1.5-.4,1.5-.9s-.3-.8-1.9-1.1-2.2-.8-2.2-1.7.8-1.7,2.4-1.7a4,4,0,0,1,2.3.8l-.4.6a3.4,3.4,0,0,0-2-.6c-1,0-1.3.4-1.3.8s.5.8,1.7,1,2.4.9,2.4,1.8-1,1.7-2.6,1.7A5,5,0,0,1,238.6,317.7Z"/><path class="cls-4" d="M247.4,316.2v-2.7h-1.6v-.8h1.7v-1.9h.8v1.9h2.9v.8h-2.9v2.7c0,1.1.4,1.6,1.5,1.6l1.4-.2.2.7a4.8,4.8,0,0,1-1.8.3C248,318.6,247.4,317.7,247.4,316.2Z"/><path class="cls-4" d="M253.1,316.3v-3.6h1v3.5c0,1.1.4,1.6,1.3,1.6a2.1,2.1,0,0,0,1.8-1.1v-4h1v5.8h-.8v-1h0a2.8,2.8,0,0,1-2.2,1.1C253.7,318.6,253.1,317.8,253.1,316.3Z"/><path class="cls-4" d="M260.5,312.7h.8v1h0a2.9,2.9,0,0,1,2.2-1.2c1.4,0,2,.8,2,2.4v3.6h-1V315c0-1.1-.3-1.6-1.3-1.6a2.2,2.2,0,0,0-1.8,1v4.1h-1Z"/><path class="cls-4" d="M267.3,315.6a2.9,2.9,0,0,1,2.6-3.1,2.5,2.5,0,0,1,1.8.8h0V310h.9v8.5h-.8v-.8h0a2.8,2.8,0,0,1-1.9.9C268.3,318.6,267.3,317.5,267.3,315.6Zm4.4,1.3V314a2.3,2.3,0,0,0-1.6-.6c-1,0-1.8.8-1.8,2.2s.6,2.2,1.7,2.2A2.4,2.4,0,0,0,271.7,316.9Z"/><path class="cls-4" d="M274.6,315.6a3,3,0,0,1,3-3.1,2.5,2.5,0,0,1,2.6,2.8v.6h-4.6a2,2,0,0,0,2.2,1.9,3.5,3.5,0,0,0,1.8-.5l.4.6a3.9,3.9,0,0,1-2.3.7A2.9,2.9,0,0,1,274.6,315.6Zm1-.5h3.7c-.1-1.2-.7-1.8-1.7-1.8A2,2,0,0,0,275.6,315.1Z"/><path class="cls-4" d="M282.1,312.7h.8v1h0a2.9,2.9,0,0,1,2.2-1.2c1.4,0,2,.8,2,2.4v3.6h-1V315c0-1.1-.3-1.6-1.3-1.6a2.2,2.2,0,0,0-1.8,1v4.1h-1Z"/><path class="cls-4" d="M138.6,339.4h4.8v.9h-3.8v2.6h3.2v.9h-3.2v3.5h-1Z"/><path class="cls-4" d="M145,344.4a3,3,0,0,1,2.9-3.1,2.5,2.5,0,0,1,2.7,2.8v.6H146a2,2,0,0,0,2.2,1.9,3.5,3.5,0,0,0,1.8-.5l.4.6a3.9,3.9,0,0,1-2.3.7A2.9,2.9,0,0,1,145,344.4Zm1-.5h3.7c-.1-1.2-.7-1.8-1.7-1.8A2,2,0,0,0,146,343.9Z"/><path class="cls-4" d="M153.1,341.5h.8v1.3h0a3.4,3.4,0,0,1,2.6-1.5,2.4,2.4,0,0,1,1.2.3l-.2.8-1.1-.2a2.8,2.8,0,0,0-2.4,1.7v3.4h-1Z"/><path class="cls-4" d="M161,345v-2.7h-1.6v-.8h1.7v-1.9h.8v1.9h2.9v.8H162V345c0,1.1.4,1.6,1.5,1.6l1.4-.2.2.7a4.8,4.8,0,0,1-1.8.3C161.6,347.4,161,346.5,161,345Z"/><path class="cls-4" d="M169.5,342.3h-2.7v-.8h3.7v5.8h-1Zm-.4-2.8a.8.8,0,0,1,.8-.8.7.7,0,0,1,.8.8.7.7,0,0,1-.8.7A.8.8,0,0,1,169.1,339.5Z"/><path class="cls-4" d="M173.8,348.4a1.6,1.6,0,0,1,1-1.3h0a.9.9,0,0,1-.6-.9,1.3,1.3,0,0,1,.7-1.1h0a1.8,1.8,0,0,1-.7-1.5,2.1,2.1,0,0,1,2.2-2.1l.9.2h2.4v.8h-1.5a1.4,1.4,0,0,1,.5,1.1,2,2,0,0,1-2.3,2,1.5,1.5,0,0,1-.9-.2c-.3.2-.5.4-.5.7s.5.7,1.2.7h1.3c1.5,0,2.2.4,2.2,1.3s-1.2,2.1-3.2,2.1S173.8,349.4,173.8,348.4Zm5-.3c0-.6-.5-.7-1.4-.7h-2c-.5.3-.7.6-.7,1s.6,1,1.9,1S178.8,348.7,178.8,348.1Zm-1-4.7a1.4,1.4,0,0,0-1.4-1.4,1.4,1.4,0,0,0,0,2.8A1.4,1.4,0,0,0,177.8,343.4Z"/><path class="cls-4" d="M181.1,345.1v-3.6h1V345c0,1.1.3,1.6,1.3,1.6a2.1,2.1,0,0,0,1.8-1.1v-4h1v5.8h-.8v-1h0a2.8,2.8,0,0,1-2.2,1.1C181.7,347.4,181.1,346.6,181.1,345.1Z"/><path class="cls-4" d="M188.5,341.5h.8v1h0a2.9,2.9,0,0,1,2.2-1.2c1.4,0,2,.8,2,2.4v3.6h-1v-3.5c0-1.1-.3-1.6-1.3-1.6a2.2,2.2,0,0,0-1.8,1v4.1h-1Z"/><path class="cls-4" d="M195.4,348.4a1.6,1.6,0,0,1,1-1.3h0a.9.9,0,0,1-.6-.9,1.3,1.3,0,0,1,.7-1.1h0a1.8,1.8,0,0,1-.7-1.5,2.1,2.1,0,0,1,2.2-2.1l.9.2h2.4v.8h-1.5a1.4,1.4,0,0,1,.5,1.1,2,2,0,0,1-2.3,2,1.5,1.5,0,0,1-.9-.2c-.3.2-.5.4-.5.7s.5.7,1.2.7h1.3c1.5,0,2.2.4,2.2,1.3s-1.2,2.1-3.2,2.1S195.4,349.4,195.4,348.4Zm5-.3c0-.6-.5-.7-1.4-.7h-2c-.5.3-.7.6-.7,1s.6,1,1.9,1S200.4,348.7,200.4,348.1Zm-1-4.7A1.4,1.4,0,0,0,198,342a1.4,1.4,0,0,0,0,2.8A1.4,1.4,0,0,0,199.4,343.4Z"/><path class="cls-4" d="M202.6,346.5l.5-.6a3.7,3.7,0,0,0,2.5.8c1,0,1.5-.4,1.5-.9s-.3-.8-1.9-1.1-2.2-.8-2.2-1.7.8-1.7,2.4-1.7a4,4,0,0,1,2.3.8l-.4.6a3.4,3.4,0,0,0-2-.6c-1,0-1.3.4-1.3.8s.5.7,1.7,1,2.4.9,2.4,1.8-1,1.7-2.6,1.7A5,5,0,0,1,202.6,346.5Z"/><path class="cls-4" d="M209.8,346.8l4-4.5h-3.5v-.8h4.9v.5l-4,4.5h4.1v.8h-5.5Z"/><path class="cls-4" d="M217,344.4a3,3,0,0,1,2.9-3.1,2.5,2.5,0,0,1,2.7,2.8v.6H218a2,2,0,0,0,2.2,1.9,3.5,3.5,0,0,0,1.8-.5l.4.6a3.9,3.9,0,0,1-2.3.7A2.9,2.9,0,0,1,217,344.4Zm1-.5h3.7c-.1-1.2-.7-1.8-1.7-1.8A2,2,0,0,0,218,343.9Z"/><path class="cls-4" d="M227.1,342.3h-2.7v-.8h3.7v5.8h-1Zm-.4-2.8a.8.8,0,0,1,.8-.8.7.7,0,0,1,.8.8.7.7,0,0,1-.8.7A.8.8,0,0,1,226.7,339.5Z"/><path class="cls-4" d="M233,345v-2.7h-1.6v-.8h1.7v-1.9h.8v1.9h2.9v.8H234V345c0,1.1.4,1.6,1.5,1.6l1.4-.2.2.7a4.8,4.8,0,0,1-1.8.3C233.6,347.4,233,346.5,233,345Z"/><path class="cls-4" d="M138.2,368.2h2.4c1.7,0,2.9.6,2.9,2.3s-1.2,2.5-2.9,2.5h-1.4v3.1h-1Zm2.2,4c1.4,0,2.1-.5,2.1-1.7s-.7-1.5-2.1-1.5h-1.2v3.2Z"/><path class="cls-4" d="M145.9,370.3h.8v1.3h0a3.4,3.4,0,0,1,2.6-1.5,2.4,2.4,0,0,1,1.2.3l-.2.8-1.1-.2a2.8,2.8,0,0,0-2.4,1.7v3.4h-1Z"/><path class="cls-4" d="M152.1,373.2a2.9,2.9,0,1,1,5.7,0,2.9,2.9,0,1,1-5.7,0Zm4.7,0c0-1.4-.7-2.3-1.8-2.3s-1.9.9-1.9,2.3.7,2.2,1.9,2.2S156.8,374.5,156.8,373.2Z"/><path class="cls-4" d="M159.3,373.2c0-1.9,1.2-3.1,2.6-3.1a2.5,2.5,0,0,1,1.8.8h0v-3.3h.9v8.5h-.8v-.8h0a2.8,2.8,0,0,1-1.9.9C160.3,376.2,159.3,375.1,159.3,373.2Zm4.4,1.3v-2.9a2.3,2.3,0,0,0-1.6-.6c-1,0-1.8.8-1.8,2.2s.6,2.2,1.7,2.2A2.4,2.4,0,0,0,163.7,374.5Z"/><path class="cls-4" d="M166.7,373.9v-3.6h1v3.5c0,1.1.3,1.6,1.3,1.6a2.1,2.1,0,0,0,1.8-1.1v-4h1v5.8H171v-1h0a2.8,2.8,0,0,1-2.2,1.1C167.3,376.2,166.7,375.4,166.7,373.9Z"/><path class="cls-4" d="M174.2,367.6h1v5.7h.1l3.1-3h1.1l-2.3,2.3,2.6,3.5h-1.1l-2.1-2.9-1.4,1.3v1.6h-1Z"/><path class="cls-4" d="M182.6,373.8v-2.7H181v-.8h1.7v-1.9h.8v1.9h2.9v.8h-2.9v2.7c0,1.1.4,1.6,1.5,1.6l1.4-.2.2.7a4.8,4.8,0,0,1-1.8.3C183.2,376.2,182.6,375.3,182.6,373.8Z"/><path class="cls-4" d="M191.1,371.1h-2.7v-.8h3.7v5.8h-1Zm-.4-2.8a.8.8,0,0,1,.8-.8.7.7,0,0,1,.8.8.7.7,0,0,1-.8.7A.8.8,0,0,1,190.7,368.3Z"/><path class="cls-4" d="M195.2,370.3h1l1.3,3.3c.2.6.5,1.1.7,1.7h0a12.2,12.2,0,0,1,.7-1.7l1.3-3.3h.9l-2.4,5.8h-1.1Z"/><path class="cls-4" d="M202.6,373.2a3,3,0,0,1,2.9-3.1,2.5,2.5,0,0,1,2.7,2.8v.6h-4.6a2,2,0,0,0,2.2,1.9,3.5,3.5,0,0,0,1.8-.5l.4.6a3.9,3.9,0,0,1-2.3.7A2.9,2.9,0,0,1,202.6,373.2Zm1-.5h3.7c-.1-1.2-.7-1.8-1.7-1.8A2,2,0,0,0,203.6,372.7Z"/><path class="cls-4" d="M219.2,368.2h1.1l2.7,7.9h-1.1l-.7-2.4h-2.9l-.7,2.4h-1.1Zm-.6,4.7h2.3l-.4-1.2c-.2-.9-.5-1.7-.7-2.7h-.1a21.3,21.3,0,0,1-.8,2.7Z"/><path class="cls-4" d="M224.5,370.3h.8v1h0a2.9,2.9,0,0,1,2.2-1.2c1.4,0,2,.8,2,2.4v3.6h-1v-3.5c0-1.1-.3-1.6-1.3-1.6a2.2,2.2,0,0,0-1.8,1v4.1h-1Z"/><path class="cls-4" d="M230.7,370.3h.9l.7,3.3.3,1.7h0c.1-.6.3-1.1.4-1.7l.7-3h1l.7,3a10.1,10.1,0,0,1,.3,1.7h.1a10.1,10.1,0,0,1,.3-1.7l.6-3.3h1l-1.3,5.8h-1.3l-.6-2.8c-.1-.4-.2-1-.3-1.7h-.1c-.1.7-.2,1.3-.3,1.7l-.6,2.8h-1.3Z"/><path class="cls-4" d="M238.6,373.2a3,3,0,0,1,2.9-3.1,2.5,2.5,0,0,1,2.7,2.8v.6h-4.6a2,2,0,0,0,2.2,1.9,3.5,3.5,0,0,0,1.8-.5l.4.6a3.9,3.9,0,0,1-2.3.7A2.9,2.9,0,0,1,238.6,373.2Zm1-.5h3.7c-.1-1.2-.7-1.8-1.7-1.8A2,2,0,0,0,239.6,372.7Z"/><path class="cls-4" d="M245.8,375.3l.5-.6a3.7,3.7,0,0,0,2.5.8c1,0,1.5-.4,1.5-.9s-.3-.8-1.8-1.1-2.3-.8-2.3-1.7.8-1.7,2.4-1.7a4,4,0,0,1,2.3.8l-.4.6a3.4,3.4,0,0,0-2-.6c-1,0-1.3.4-1.3.8s.5.8,1.7,1,2.4.9,2.4,1.8-1,1.7-2.6,1.7A5,5,0,0,1,245.8,375.3Z"/><path class="cls-4" d="M253,373.2a3,3,0,0,1,3-3.1,2.5,2.5,0,0,1,2.6,2.8v.6H254a2,2,0,0,0,2.2,1.9,3.5,3.5,0,0,0,1.8-.5l.4.6a3.9,3.9,0,0,1-2.3.7A2.9,2.9,0,0,1,253,373.2Zm1-.5h3.7c-.1-1.2-.7-1.8-1.7-1.8A2,2,0,0,0,254,372.7Z"/><path class="cls-4" d="M260.5,370.3h.8v1h0a2.9,2.9,0,0,1,2.2-1.2c1.4,0,2,.8,2,2.4v3.6h-1v-3.5c0-1.1-.3-1.6-1.3-1.6a2.2,2.2,0,0,0-1.8,1v4.1h-1Z"/><path class="cls-4" d="M267.7,367.6h1v3.7h0a2.9,2.9,0,0,1,2.2-1.2c1.4,0,2,.8,2,2.4v3.6h-1v-3.5c0-1.1-.3-1.6-1.3-1.6a2.2,2.2,0,0,0-1.8,1v4.1h-1Z"/><path class="cls-4" d="M274.6,373.2a3,3,0,0,1,3-3.1,2.5,2.5,0,0,1,2.6,2.8v.6h-4.6a2,2,0,0,0,2.2,1.9,3.5,3.5,0,0,0,1.8-.5l.4.6a3.9,3.9,0,0,1-2.3.7A2.9,2.9,0,0,1,274.6,373.2Zm1-.5h3.7c-.1-1.2-.7-1.8-1.7-1.8A2,2,0,0,0,275.6,372.7Z"/><path class="cls-4" d="M284.8,371.1H282v-.8h3.7v5.8h-.9Zm-.5-2.8a.8.8,0,0,1,.8-.8.7.7,0,0,1,.8.8.7.7,0,0,1-.8.7A.8.8,0,0,1,284.3,368.3Z"/><path class="cls-4" d="M290.6,373.8v-2.7H289v-.8h1.7v-1.9h.8v1.9h2.9v.8h-2.9v2.7c0,1.1.4,1.6,1.5,1.6l1.4-.2.2.7a4.8,4.8,0,0,1-1.8.3C291.2,376.2,290.6,375.3,290.6,373.8Z"/><path class="cls-4" d="M138.6,397h.9v7h3.9v.9h-4.8Z"/><path class="cls-4" d="M145,402a3,3,0,0,1,2.9-3.1,2.5,2.5,0,0,1,2.7,2.8v.6H146a2,2,0,0,0,2.2,1.9,3.5,3.5,0,0,0,1.8-.5l.4.6a3.9,3.9,0,0,1-2.3.7A2.9,2.9,0,0,1,145,402Zm1-.5h3.7c-.1-1.2-.7-1.8-1.7-1.8A2,2,0,0,0,146,401.5Z"/><path class="cls-4" d="M155.1,399.9h-2.7v-.8h3.7v5.8h-1Zm-.4-2.8a.8.8,0,0,1,.8-.8.7.7,0,0,1,.8.8.7.7,0,0,1-.8.7A.8.8,0,0,1,154.7,397.1Z"/><path class="cls-4" d="M159.4,404.1l.5-.6a3.7,3.7,0,0,0,2.5.8c1,0,1.5-.4,1.5-.9s-.3-.8-1.9-1.1-2.2-.8-2.2-1.7.8-1.7,2.4-1.7a4,4,0,0,1,2.3.8l-.4.6a3.4,3.4,0,0,0-2-.6c-1,0-1.3.4-1.3.8s.5.7,1.7,1,2.4.9,2.4,1.8-1,1.7-2.6,1.7A5,5,0,0,1,159.4,404.1Z"/><path class="cls-4" d="M168.2,402.6v-2.7h-1.6v-.8h1.7v-1.9h.8v1.9h2.9v.8h-2.9v2.7c0,1.1.4,1.6,1.5,1.6l1.4-.2.2.7a4.8,4.8,0,0,1-1.8.3C168.8,405,168.2,404.1,168.2,402.6Z"/><path class="cls-4" d="M173.9,402.7v-3.6h1v3.5c0,1.1.3,1.6,1.3,1.6a2.1,2.1,0,0,0,1.8-1.1v-4h1v5.8h-.8v-1h0a2.8,2.8,0,0,1-2.2,1.1C174.5,405,173.9,404.2,173.9,402.7Z"/><path class="cls-4" d="M181.3,399.1h.8v1h0a2.9,2.9,0,0,1,2.2-1.2c1.4,0,2,.8,2,2.4v3.6h-1v-3.5c0-1.1-.3-1.6-1.3-1.6a2.2,2.2,0,0,0-1.8,1v4.1h-1Z"/><path class="cls-4" d="M188.2,406a1.6,1.6,0,0,1,1-1.3h0a.9.9,0,0,1-.6-.9,1.3,1.3,0,0,1,.7-1.1h0a1.8,1.8,0,0,1-.7-1.5,2.1,2.1,0,0,1,2.2-2.1l.9.2h2.4v.8h-1.5a1.4,1.4,0,0,1,.5,1.1,2,2,0,0,1-2.3,2,1.5,1.5,0,0,1-.9-.2c-.3.2-.5.4-.5.7s.5.7,1.2.7h1.3c1.5,0,2.2.4,2.2,1.3s-1.2,2.1-3.2,2.1S188.2,407,188.2,406Zm5-.3c0-.6-.5-.7-1.4-.7h-2c-.5.3-.7.6-.7,1s.6,1,1.9,1S193.2,406.3,193.2,405.7Zm-1-4.7a1.4,1.4,0,0,0-1.4-1.4,1.4,1.4,0,0,0,0,2.8A1.4,1.4,0,0,0,192.2,401Z"/><path class="cls-4" d="M195.4,404.1l.5-.6a3.7,3.7,0,0,0,2.5.8c1,0,1.5-.4,1.5-.9s-.3-.8-1.9-1.1-2.2-.8-2.2-1.7.8-1.7,2.4-1.7a4,4,0,0,1,2.3.8l-.4.6a3.4,3.4,0,0,0-2-.6c-1,0-1.3.4-1.3.8s.5.7,1.7,1,2.4.9,2.4,1.8-1,1.7-2.6,1.7A5,5,0,0,1,195.4,404.1Z"/><path class="cls-4" d="M202.6,404.4l4-4.5h-3.5v-.8H208v.5l-4,4.5h4.1v.8h-5.5Z"/><path class="cls-4" d="M209.8,402a3,3,0,0,1,2.9-3.1,2.5,2.5,0,0,1,2.7,2.8v.6h-4.6a2,2,0,0,0,2.2,1.9,3.5,3.5,0,0,0,1.8-.5l.4.6a3.9,3.9,0,0,1-2.3.7A2.9,2.9,0,0,1,209.8,402Zm1-.5h3.7c-.1-1.2-.7-1.8-1.7-1.8A2,2,0,0,0,210.8,401.5Z"/><path class="cls-4" d="M219.9,399.9h-2.7v-.8h3.7v5.8h-1Zm-.4-2.8a.8.8,0,0,1,.8-.8.7.7,0,0,1,.8.8.7.7,0,0,1-.8.7A.8.8,0,0,1,219.5,397.1Z"/><path class="cls-4" d="M225.8,402.6v-2.7h-1.6v-.8h1.7v-1.9h.8v1.9h2.9v.8h-2.9v2.7c0,1.1.4,1.6,1.5,1.6l1.4-.2.2.7a4.8,4.8,0,0,1-1.8.3C226.4,405,225.8,404.1,225.8,402.6Z"/><path class="cls-4" d="M153.7,178.3h1v7.1h3.9v.8h-4.9Z"/><path class="cls-4" d="M160.1,183.3a3,3,0,0,1,3-3.1,2.5,2.5,0,0,1,2.7,2.8c0,.2-.1.4-.1.6h-4.6a2.1,2.1,0,0,0,2.3,2,3.9,3.9,0,0,0,1.8-.6l.3.7a4.4,4.4,0,0,1-2.2.7A3,3,0,0,1,160.1,183.3Zm1.1-.5h3.7a1.7,1.7,0,0,0-1.8-1.8A1.9,1.9,0,0,0,161.2,182.8Z"/><path class="cls-4" d="M167.3,183.3a3,3,0,0,1,3-3.1A2.5,2.5,0,0,1,173,183c0,.2-.1.4-.1.6h-4.6a2.1,2.1,0,0,0,2.3,2,3.9,3.9,0,0,0,1.8-.6l.3.7a4.4,4.4,0,0,1-2.2.7A3,3,0,0,1,167.3,183.3Zm1.1-.5h3.7a1.7,1.7,0,0,0-1.8-1.8A1.9,1.9,0,0,0,168.4,182.8Z"/><path class="cls-4" d="M175.5,180.4h.8v1.4h0a3,3,0,0,1,2.6-1.6l1.2.3-.3.8-1.1-.2a2.7,2.7,0,0,0-2.3,1.7v3.4h-1Z"/><path class="cls-4" d="M183.9,184.3v-5.8h-2v-.8h3v6.6c0,.9.4,1.2,1.1,1.2a2.3,2.3,0,0,0,1.1-.2l.3.7a4.7,4.7,0,0,1-1.6.4A1.8,1.8,0,0,1,183.9,184.3Z"/><path class="cls-4" d="M189.1,184.7c0-1.3,1.2-1.9,4.2-2.2,0-.8-.4-1.4-1.5-1.4a4.7,4.7,0,0,0-2.1.6l-.4-.6a5,5,0,0,1,2.6-.9,2.2,2.2,0,0,1,2.4,2.4v3.6h-.8v-.8h0a4.3,4.3,0,0,1-2.3,1A1.8,1.8,0,0,1,189.1,184.7Zm4.2,0v-1.5c-2.5.2-3.3.7-3.3,1.4s.7,1,1.3,1A3.3,3.3,0,0,0,193.3,184.7Z"/><path class="cls-4" d="M196.2,184v-3.6h1v3.5c0,1.1.4,1.6,1.4,1.6s1.1-.3,1.8-1.1v-4h1v5.8h-.8v-1h-.1a2.6,2.6,0,0,1-2.1,1.2C196.9,186.4,196.2,185.5,196.2,184Z"/><path class="cls-4" d="M205.4,181.2h-1.6v-.8h1.6v-.5a2.2,2.2,0,0,1,2.4-2.4,3.8,3.8,0,0,1,1.7.4l-.3.7a3.1,3.1,0,0,0-1.3-.3c-1.1,0-1.5.6-1.5,1.6v.5h2.4v.8h-2.4v5h-1Z"/><path class="cls-4" d="M152.2,192.7h1.2l.5,5a9,9,0,0,1,.2,1.8h0c.2-.8.3-1.2.4-1.8l.8-2.9h.9l.8,2.9c.2.6.2,1,.4,1.8h0c.1-.8.1-1.2.2-1.8l.5-5h1.1l-1.2,7.9h-1.2l-.8-3.2-.3-1.4h0l-.3,1.4-.7,3.2h-1.3Z"/><path class="cls-4" d="M160.1,197.7a3,3,0,0,1,3-3.1,2.5,2.5,0,0,1,2.7,2.8c0,.2-.1.4-.1.6h-4.6a2.1,2.1,0,0,0,2.3,2,3.9,3.9,0,0,0,1.8-.6l.3.7a4.4,4.4,0,0,1-2.2.7A3,3,0,0,1,160.1,197.7Zm1.1-.5h3.7a1.7,1.7,0,0,0-1.8-1.8A1.9,1.9,0,0,0,161.2,197.2Z"/><path class="cls-4" d="M168.3,194.8h.8v1.4h0a3,3,0,0,1,2.6-1.6,2.7,2.7,0,0,1,1.2.3l-.3.8-1.1-.2a2.7,2.7,0,0,0-2.3,1.7v3.4h-1Z"/><path class="cls-4" d="M175,192.1h1v5.7h0l3.2-3h1.1l-2.3,2.3,2.6,3.5h-1.1l-2.1-2.9L176,199v1.6h-1Z"/><path class="cls-4" d="M181.8,199.8l.4-.6a4.2,4.2,0,0,0,2.6.8c.9,0,1.4-.4,1.4-.9s-.2-.8-1.8-1.1-2.3-.8-2.3-1.7.9-1.7,2.5-1.7a4.5,4.5,0,0,1,2.3.8l-.5.6a3.1,3.1,0,0,0-1.9-.6c-1,0-1.4.4-1.4.8s.5.8,1.7,1,2.4.9,2.4,1.8-.9,1.8-2.6,1.8A5,5,0,0,1,181.8,199.8Z"/><path class="cls-4" d="M190.6,198.3v-2.7h-1.7v-.8h1.7l.2-1.9h.8v1.9h2.8v.8h-2.8v2.8c0,1,.3,1.5,1.4,1.5l1.5-.2.2.7a5.3,5.3,0,0,1-1.9.4C191.1,200.8,190.6,199.8,190.6,198.3Z"/><path class="cls-4" d="M196.3,199.1c0-1.3,1.2-1.9,4.2-2.2,0-.8-.4-1.4-1.5-1.4a4.7,4.7,0,0,0-2.1.6l-.4-.6a5,5,0,0,1,2.6-.9,2.2,2.2,0,0,1,2.4,2.4v3.6h-.8v-.8h0a4.3,4.3,0,0,1-2.3,1A1.8,1.8,0,0,1,196.3,199.1Zm4.2,0v-1.5c-2.5.2-3.3.7-3.3,1.4s.7,1,1.3,1A3.3,3.3,0,0,0,200.5,199.1Z"/><path class="cls-4" d="M205,198.3v-2.7h-1.7v-.8H205l.2-1.9h.8v1.9h2.8v.8H206v2.8c0,1,.3,1.5,1.4,1.5l1.5-.2.2.7a5.3,5.3,0,0,1-1.9.4C205.5,200.8,205,199.8,205,198.3Z"/><path class="cls-4" d="M212.2,198.3v-2.7h-1.7v-.8h1.7l.2-1.9h.8v1.9H216v.8h-2.8v2.8c0,1,.3,1.5,1.4,1.5l1.4-.2.3.7a5.3,5.3,0,0,1-1.9.4C212.7,200.8,212.2,199.8,212.2,198.3Z"/><path class="cls-4" d="M217.9,199.1c0-1.3,1.2-1.9,4.2-2.2,0-.8-.4-1.4-1.5-1.4a4.7,4.7,0,0,0-2.1.6l-.4-.6a5,5,0,0,1,2.6-.9,2.2,2.2,0,0,1,2.4,2.4v3.6h-.8v-.8h0a4.3,4.3,0,0,1-2.3,1A1.8,1.8,0,0,1,217.9,199.1Zm4.2,0v-1.5c-2.5.2-3.3.7-3.3,1.4s.7,1,1.3,1A3.3,3.3,0,0,0,222.1,199.1Z"/><path class="cls-4" d="M225.9,194.8h.8v1.4h0a3,3,0,0,1,2.6-1.6,2.7,2.7,0,0,1,1.2.3l-.3.8-1-.2a2.7,2.7,0,0,0-2.4,1.7v3.4h-1Z"/><path class="cls-4" d="M233.3,200h0v.6h-.8v-8.5h1v3.4h0a3.1,3.1,0,0,1,2-.9c1.5,0,2.4,1.2,2.4,3s-1.3,3.2-2.6,3.2A3.1,3.1,0,0,1,233.3,200Zm3.5-2.4c0-1.3-.5-2.1-1.7-2.1a2.4,2.4,0,0,0-1.7.8v2.9a2.7,2.7,0,0,0,1.6.7C236,199.9,236.8,199,236.8,197.6Z"/><path class="cls-4" d="M239.3,197.7a3,3,0,0,1,3-3.1,2.5,2.5,0,0,1,2.7,2.8c0,.2-.1.4-.1.6h-4.6a2.1,2.1,0,0,0,2.3,2,3.9,3.9,0,0,0,1.8-.6l.3.7a4.4,4.4,0,0,1-2.2.7A3,3,0,0,1,239.3,197.7Zm1.1-.5h3.7a1.7,1.7,0,0,0-1.8-1.8A1.9,1.9,0,0,0,240.4,197.2Z"/><path class="cls-4" d="M249.5,195.6h-2.7v-.8h3.7v5.8h-1Zm-.4-2.8a.7.7,0,0,1,.8-.8.8.8,0,1,1,0,1.6A.7.7,0,0,1,249.1,192.8Z"/><path class="cls-4" d="M255.4,198.3v-2.7h-1.7v-.8h1.7l.2-1.9h.8v1.9h2.8v.8h-2.8v2.8c0,1,.3,1.5,1.4,1.5l1.5-.2.2.7a5.3,5.3,0,0,1-1.9.4C255.9,200.8,255.4,199.8,255.4,198.3Z"/><path class="cls-4" d="M260.9,197.7a3,3,0,0,1,3-3.1,2.5,2.5,0,0,1,2.7,2.8c0,.2-.1.4-.1.6h-4.6a2.1,2.1,0,0,0,2.3,2,3.9,3.9,0,0,0,1.8-.6l.3.7a4.4,4.4,0,0,1-2.2.7A3,3,0,0,1,260.9,197.7Zm1.1-.5h3.7a1.7,1.7,0,0,0-1.8-1.8A1.9,1.9,0,0,0,262,197.2Z"/><path class="cls-4" d="M268.4,194.8h.8v1h.1a2.9,2.9,0,0,1,2.2-1.2c1.4,0,2,.9,2,2.4v3.6h-1v-3.5c0-1.1-.4-1.6-1.3-1.6a2.6,2.6,0,0,0-1.9,1v4.1h-1Z"/><path class="cls-4" d="M153.1,207.1h1v3.3h3.3v-3.3h1V215h-1v-3.7h-3.3V215h-1Z"/><path class="cls-4" d="M163.1,210h-2.7v-.8h3.7V215h-1Zm-.4-2.8a.7.7,0,0,1,.8-.8.8.8,0,0,1,0,1.6A.7.7,0,0,1,162.7,207.2Z"/><path class="cls-4" d="M169.5,213.1v-5.8h-2v-.8h3v6.6c0,.9.4,1.2,1.1,1.2a2.3,2.3,0,0,0,1.1-.2l.3.7a4.7,4.7,0,0,1-1.6.4A1.8,1.8,0,0,1,169.5,213.1Z"/><path class="cls-4" d="M176.6,210H175v-.8h1.6v-.5a2.2,2.2,0,0,1,2.4-2.4,3.2,3.2,0,0,1,1.6.4l-.2.7a3.1,3.1,0,0,0-1.3-.3c-1.1,0-1.5.6-1.5,1.6v.5H180v.8h-2.4v5h-1Z"/><path class="cls-4" d="M181.8,214.2l.4-.6a4.2,4.2,0,0,0,2.6.8c.9,0,1.4-.4,1.4-.9s-.2-.8-1.8-1.1-2.3-.8-2.3-1.7.9-1.7,2.5-1.7a4.5,4.5,0,0,1,2.3.8l-.5.6a3.1,3.1,0,0,0-1.9-.6c-1,0-1.4.4-1.4.8s.5.8,1.7,1,2.4.9,2.4,1.8-.9,1.8-2.6,1.8A5,5,0,0,1,181.8,214.2Z"/><path class="cls-4" d="M191.1,213.1v-5.8h-2v-.8h3v6.6c0,.9.4,1.2,1.1,1.2a2.3,2.3,0,0,0,1.1-.2l.3.7a4.7,4.7,0,0,1-1.6.4A1.8,1.8,0,0,1,191.1,213.1Z"/><path class="cls-4" d="M196,212.1a2.9,2.9,0,0,1,2.9-3.1,2.8,2.8,0,0,1,2.9,3.1,2.9,2.9,0,0,1-2.9,3.1A3,3,0,0,1,196,212.1Zm4.8,0a2,2,0,0,0-1.9-2.2c-1.1,0-1.8.9-1.8,2.2s.7,2.2,1.8,2.2A2,2,0,0,0,200.8,212.1Z"/><path class="cls-4" d="M203.6,206.5h1v3.7h0a2.9,2.9,0,0,1,2.2-1.2c1.4,0,2,.9,2,2.4V215h-1v-3.5c0-1.1-.4-1.6-1.3-1.6a2.6,2.6,0,0,0-1.9,1V215h-1Z"/><path class="cls-4" d="M210.8,209.2h.8v1h.1A2.9,2.9,0,0,1,214,209c1.4,0,2,.9,2,2.4V215h-1v-3.5c0-1.1-.4-1.6-1.3-1.6a2.6,2.6,0,0,0-1.9,1V215h-1Z"/><path class="cls-4" d="M217.8,214.2l.4-.6a4.2,4.2,0,0,0,2.6.8c.9,0,1.4-.4,1.4-.9s-.2-.8-1.8-1.1-2.3-.8-2.3-1.7.9-1.7,2.5-1.7a4.5,4.5,0,0,1,2.3.8l-.5.6a3.1,3.1,0,0,0-1.9-.6c-1,0-1.4.4-1.4.8s.5.8,1.7,1,2.4.9,2.4,1.8-.9,1.8-2.6,1.8A5,5,0,0,1,217.8,214.2Z"/><path class="cls-4" d="M226.6,212.7V210h-1.7v-.8h1.7l.2-1.9h.8v1.9h2.8v.8h-2.8v2.8c0,1,.3,1.5,1.4,1.5l1.5-.2.2.7a5.3,5.3,0,0,1-1.9.4C227.1,215.2,226.6,214.2,226.6,212.7Z"/><path class="cls-4" d="M232.2,212.8v-3.6h1v3.5c0,1.1.4,1.6,1.4,1.6s1.1-.3,1.8-1.1v-4h1V215h-.8v-1h-.1a2.6,2.6,0,0,1-2.1,1.2C232.9,215.2,232.2,214.3,232.2,212.8Z"/><path class="cls-4" d="M239.6,209.2h.8v1h.1a2.9,2.9,0,0,1,2.2-1.2c1.4,0,2,.9,2,2.4V215h-1v-3.5c0-1.1-.4-1.6-1.3-1.6a2.6,2.6,0,0,0-1.9,1V215h-1Z"/><path class="cls-4" d="M246.4,212.1a2.9,2.9,0,0,1,2.7-3.1,2.3,2.3,0,0,1,1.7.8h.1v-3.3h1V215H251v-.8h0a3,3,0,0,1-1.9,1C247.4,215.2,246.4,214,246.4,212.1Zm4.4,1.3v-2.9a2.4,2.4,0,0,0-1.5-.6,2,2,0,0,0-1.8,2.2c0,1.4.6,2.2,1.7,2.2A2.2,2.2,0,0,0,250.8,213.4Z"/><path class="cls-4" d="M253.7,212.1a3,3,0,0,1,3-3.1,2.5,2.5,0,0,1,2.7,2.8c0,.2-.1.4-.1.6h-4.6a2.1,2.1,0,0,0,2.3,2,3.9,3.9,0,0,0,1.8-.6l.3.7a4.4,4.4,0,0,1-2.2.7A3,3,0,0,1,253.7,212.1Zm1.1-.5h3.7a1.7,1.7,0,0,0-1.8-1.8A1.9,1.9,0,0,0,254.8,211.6Z"/><path class="cls-4" d="M261.2,209.2h.8v1h.1a2.9,2.9,0,0,1,2.2-1.2c1.4,0,2,.9,2,2.4V215h-1v-3.5c0-1.1-.4-1.6-1.3-1.6a2.6,2.6,0,0,0-1.9,1V215h-1Z"/><path class="cls-4" d="M153.1,226.4v-4.9h1v5c0,1.6.7,2.2,1.6,2.2s1.7-.6,1.7-2.2v-5h1v4.9c0,2.3-1.1,3.2-2.7,3.2S153.1,228.7,153.1,226.4Z"/><path class="cls-4" d="M160.4,223.6h.8v1h.1a2.9,2.9,0,0,1,2.2-1.2c1.4,0,2,.8,2,2.4v3.6h-1v-3.5c0-1.1-.4-1.6-1.3-1.6a2.6,2.6,0,0,0-1.9,1v4.1h-1Z"/><path class="cls-4" d="M167.6,223.6h.8v.7h.1a3.1,3.1,0,0,1,2-.9c1.6,0,2.4,1.2,2.4,3s-1.3,3.2-2.7,3.2a2.7,2.7,0,0,1-1.7-.8h0v3.1h-1Zm4.4,2.8c0-1.3-.5-2.1-1.7-2.1a2.4,2.4,0,0,0-1.7.8V228a2.7,2.7,0,0,0,1.6.7C171.2,228.7,172,227.8,172,226.4Z"/><path class="cls-4" d="M175.5,223.6h.8V225h0a3,3,0,0,1,2.6-1.6l1.2.3-.3.8-1.1-.2a2.7,2.7,0,0,0-2.3,1.7v3.4h-1Z"/><path class="cls-4" d="M181.6,226.5a2.9,2.9,0,1,1,5.8,0,2.9,2.9,0,1,1-5.8,0Zm4.8,0a2.1,2.1,0,0,0-1.9-2.3c-1.1,0-1.8,1-1.8,2.3s.7,2.2,1.8,2.2A2,2,0,0,0,186.4,226.5Z"/><path class="cls-4" d="M188.8,226.5a2.9,2.9,0,0,1,2.7-3.1,2.3,2.3,0,0,1,1.7.8h.1v-3.3h1v8.5h-.8v-.8h0a3,3,0,0,1-1.9,1C189.8,229.6,188.8,228.4,188.8,226.5Zm4.4,1.3v-2.9a2.4,2.4,0,0,0-1.5-.6,2,2,0,0,0-1.8,2.2c0,1.4.6,2.2,1.7,2.2A2.2,2.2,0,0,0,193.2,227.8Z"/><path class="cls-4" d="M196.2,227.2v-3.6h1v3.5c0,1.1.4,1.6,1.4,1.6s1.1-.3,1.8-1.1v-4h1v5.8h-.8v-1h-.1a2.6,2.6,0,0,1-2.1,1.2C196.9,229.6,196.2,228.7,196.2,227.2Z"/><path class="cls-4" d="M203.8,220.9h1v5.7h0l3.2-3h1.1l-2.3,2.3,2.6,3.5h-1.1l-2.1-2.9-1.4,1.3v1.6h-1Z"/><path class="cls-4" d="M212.2,227.1v-2.7h-1.7v-.8h1.7l.2-1.9h.8v1.9H216v.8h-2.8v2.8c0,1,.3,1.5,1.4,1.5l1.4-.2.3.7a5.3,5.3,0,0,1-1.9.4C212.7,229.6,212.2,228.6,212.2,227.1Z"/><path class="cls-4" d="M220.7,224.4H218v-.8h3.7v5.8h-1Zm-.4-2.8a.7.7,0,0,1,.8-.8.8.8,0,0,1,0,1.6A.7.7,0,0,1,220.3,221.6Z"/><path class="cls-4" d="M224.7,223.6h1l1.4,3.3.6,1.7h.1l.6-1.7,1.4-3.3h.9l-2.4,5.8h-1.1Z"/><path class="cls-4" d="M232.1,226.5a3,3,0,0,1,3-3.1,2.5,2.5,0,0,1,2.7,2.8c0,.2-.1.4-.1.6h-4.6a2.1,2.1,0,0,0,2.3,2,3.9,3.9,0,0,0,1.8-.6l.3.7a4.4,4.4,0,0,1-2.2.7A3,3,0,0,1,232.1,226.5Zm1.1-.5h3.7a1.7,1.7,0,0,0-1.8-1.8A1.9,1.9,0,0,0,233.2,226Z"/><path class="cls-4" d="M155.2,235.9h1.1l2.6,7.9h-1l-.8-2.4h-2.8l-.8,2.4h-1Zm-.7,4.7h2.4l-.4-1.2-.8-2.6h0l-.8,2.6Z"/><path class="cls-4" d="M160.4,238h.8v1h.1a2.9,2.9,0,0,1,2.2-1.2c1.4,0,2,.9,2,2.4v3.6h-1v-3.5c0-1.1-.4-1.6-1.3-1.6a2.6,2.6,0,0,0-1.9,1v4.1h-1Z"/><path class="cls-4" d="M166.6,238h1l.7,3.4.3,1.6h0l.3-1.6.8-3.1h.9l.7,3.1a7.5,7.5,0,0,1,.4,1.6h0l.3-1.6.7-3.4h.9l-1.2,5.8h-1.3l-.7-2.8c-.1-.4-.2-1-.3-1.7h0c-.1.7-.2,1.3-.3,1.7l-.6,2.8h-1.3Z"/><path class="cls-4" d="M174.5,240.9a3,3,0,0,1,3-3.1,2.5,2.5,0,0,1,2.7,2.8c0,.2-.1.4-.1.6h-4.6a2.1,2.1,0,0,0,2.3,2,3.9,3.9,0,0,0,1.8-.6l.3.7a4.4,4.4,0,0,1-2.2.7A3,3,0,0,1,174.5,240.9Zm1.1-.5h3.7a1.7,1.7,0,0,0-1.8-1.8A1.9,1.9,0,0,0,175.6,240.4Z"/><path class="cls-4" d="M181.8,243l.4-.6a4.2,4.2,0,0,0,2.6.8c.9,0,1.4-.4,1.4-.9s-.2-.8-1.8-1.1-2.3-.8-2.3-1.7.9-1.7,2.5-1.7a4.5,4.5,0,0,1,2.3.8l-.5.6a3.1,3.1,0,0,0-1.9-.6c-1,0-1.4.4-1.4.8s.5.8,1.7,1,2.4.9,2.4,1.8-.9,1.8-2.6,1.8A5,5,0,0,1,181.8,243Z"/><path class="cls-4" d="M188.9,240.9a3,3,0,0,1,3-3.1,2.5,2.5,0,0,1,2.7,2.8c0,.2-.1.4-.1.6h-4.6a2.1,2.1,0,0,0,2.3,2,3.9,3.9,0,0,0,1.8-.6l.3.7a4.4,4.4,0,0,1-2.2.7A3,3,0,0,1,188.9,240.9Zm1.1-.5h3.7a1.7,1.7,0,0,0-1.8-1.8A1.9,1.9,0,0,0,190,240.4Z"/><path class="cls-4" d="M196.4,238h.8v1h.1a2.9,2.9,0,0,1,2.2-1.2c1.4,0,2,.9,2,2.4v3.6h-1v-3.5c0-1.1-.4-1.6-1.3-1.6a2.6,2.6,0,0,0-1.9,1v4.1h-1Z"/><path class="cls-4" d="M203.6,235.3h1V239h0a2.9,2.9,0,0,1,2.2-1.2c1.4,0,2,.9,2,2.4v3.6h-1v-3.5c0-1.1-.4-1.6-1.3-1.6a2.6,2.6,0,0,0-1.9,1v4.1h-1Z"/><path class="cls-4" d="M210.5,240.9a3,3,0,0,1,3-3.1,2.5,2.5,0,0,1,2.7,2.8c0,.2-.1.4-.1.6h-4.6a2.1,2.1,0,0,0,2.3,2,3.9,3.9,0,0,0,1.8-.6l.3.7a4.4,4.4,0,0,1-2.2.7A3,3,0,0,1,210.5,240.9Zm1.1-.5h3.7a1.7,1.7,0,0,0-1.8-1.8A1.9,1.9,0,0,0,211.6,240.4Z"/><path class="cls-4" d="M220.7,238.8H218V238h3.7v5.8h-1Zm-.4-2.8a.7.7,0,0,1,.8-.8.8.8,0,1,1,0,1.6A.7.7,0,0,1,220.3,236Z"/><path class="cls-4" d="M226.6,241.5v-2.7h-1.7V238h1.7l.2-1.9h.8V238h2.8v.8h-2.8v2.8c0,1,.3,1.5,1.4,1.5l1.5-.2.2.7a5.3,5.3,0,0,1-1.9.4C227.1,244,226.6,243,226.6,241.5Z"/><rect class="cls-7" x="306.6" y="89.4" width="109.2" height="80.4"/><rect class="cls-1" x="306.3" y="171.8" width="109.2" height="251.63"/><rect class="cls-5" x="131" y="255" width="172.6" height="168.36"/><rect class="cls-7" x="131" y="171.8" width="172.6" height="81.18"/><rect class="cls-7" x="259.5" y="89.4" width="44.1" height="80.4"/><path class="cls-4" d="M6,312.2c-2.5,0-4.1-1.5-4.1-3.5a2.9,2.9,0,0,1,1-2.2l.6.6a2,2,0,0,0-.7,1.6c0,1.5,1.2,2.4,3.2,2.4s3.2-.9,3.2-2.4a2.9,2.9,0,0,0-.4-1.4H6.7v1.6H5.9v-2.5H9.2a3.3,3.3,0,0,1,.9,2.4C10.1,310.7,8.6,312.2,6,312.2Z"/><path class="cls-4" d="M7,304.8a2.9,2.9,0,0,1-3-3,2.4,2.4,0,0,1,2.7-2.6h.6v4.6a2.1,2.1,0,0,0,2-2.3,3.1,3.1,0,0,0-.5-1.7l.6-.4a3.8,3.8,0,0,1,.7,2.2A3,3,0,0,1,7,304.8Zm-.4-1v-3.7a1.6,1.6,0,0,0-1.8,1.7A2,2,0,0,0,6.6,303.8Z"/><path class="cls-4" d="M9.2,297.6l-.7-.5a4.1,4.1,0,0,0,.8-2.5c0-1-.4-1.5-.9-1.5s-.7.2-1.1,1.8-.8,2.3-1.7,2.3S4,296.4,4,294.8a4.5,4.5,0,0,1,.7-2.4l.7.5a3.2,3.2,0,0,0-.6,2c0,1,.4,1.3.8,1.3s.7-.5,1-1.7.9-2.4,1.8-2.4,1.7.9,1.7,2.6A5.5,5.5,0,0,1,9.2,297.6Z"/><path class="cls-4" d="M8.4,290.2c-1.3,0-1.9-1.2-2.1-4.2a1.4,1.4,0,0,0-1.5,1.6,4.3,4.3,0,0,0,.7,2l-.7.4a5,5,0,0,1-.8-2.6A2.2,2.2,0,0,1,6.4,285H10v.8H9.2a3.6,3.6,0,0,1,.9,2.3A1.7,1.7,0,0,1,8.4,290.2Zm0-4.2H6.9c.2,2.5.7,3.3,1.5,3.3s.9-.6.9-1.3A3,3,0,0,0,8.4,286Z"/><path class="cls-4" d="M4.1,283.3v-.8h.8a1.5,1.5,0,0,1-.9-1.3A1,1,0,0,1,5,280c-.6-.4-1-.7-1-1.4s.6-1.3,1.8-1.3H10v1H5.9c-.7,0-1.1.2-1.1.6s.3.6.9,1H10v.9H5.9c-.7,0-1.1.1-1.1.6s.3.6.9.9H10v1Z"/><path class="cls-4" d="M7.7,274.3H4.9V276H4.2v-1.7H2.3v-.8H4.1v-2.9h.8v2.9H7.7c1,0,1.6-.4,1.6-1.5a2.9,2.9,0,0,0-.3-1.4l.8-.2a7.4,7.4,0,0,1,.3,1.8C10.1,273.8,9.1,274.3,7.7,274.3Z"/><path class="cls-4" d="M8,266.6H2.2v2H1.4v-2.9H8.1a1.1,1.1,0,0,0,1.2-1.2,2.6,2.6,0,0,0-.3-1.1l.8-.2a3.7,3.7,0,0,1,.3,1.5C10.1,266,9.4,266.6,8,266.6Z"/><path class="cls-4" d="M7.1,261.7a2.9,2.9,0,1,1,0-5.8,2.9,2.9,0,1,1,0,5.8Zm0-4.8c-1.4,0-2.3.8-2.3,1.9s.9,1.9,2.3,1.9a1.9,1.9,0,1,0,0-3.8Z"/><path class="cls-4" d="M1.4,254.1v-1H5.1A3,3,0,0,1,4,250.9c0-1.3.8-2,2.3-2H10v1H6.5c-1.1,0-1.7.4-1.7,1.4s.4,1.1,1.1,1.8H10v1Z"/><path class="cls-4" d="M4.1,246.9v-.8h1A3,3,0,0,1,4,243.7c0-1.3.8-2,2.3-2H10v1H6.5c-1.1,0-1.7.4-1.7,1.4s.4,1.1,1.1,1.8H10v1Z"/><path class="cls-4" d="M1.4,239.5v-.9H7.2l-3.1-3.1v-1.2l2.3,2.4,3.6-2.7V235l-3,2.2,1.4,1.4H10v.9Z"/><path class="cls-4" d="M7.1,232.9a2.9,2.9,0,1,1,0-5.8,2.9,2.9,0,1,1,0,5.8Zm0-4.8c-1.4,0-2.3.8-2.3,1.9s.9,1.9,2.3,1.9a1.9,1.9,0,1,0,0-3.8Z"/><path class="cls-4" d="M9.2,225.6l-.7-.5a4.1,4.1,0,0,0,.8-2.5c0-1-.4-1.5-.9-1.5s-.7.2-1.1,1.8-.8,2.3-1.7,2.3S4,224.4,4,222.8a4.5,4.5,0,0,1,.7-2.4l.7.5a3.2,3.2,0,0,0-.6,2c0,1,.4,1.3.8,1.3s.7-.5,1-1.7.9-2.4,1.8-2.4,1.7.9,1.7,2.6A5.5,5.5,0,0,1,9.2,225.6Z"/><path class="cls-4" d="M7.7,216.7H4.9v1.7H4.2v-1.7H2.3v-.8H4.1v-2.9h.8v2.9H7.7c1,0,1.6-.4,1.6-1.5a2.9,2.9,0,0,0-.3-1.4l.8-.2a7.4,7.4,0,0,1,.3,1.8C10.1,216.2,9.1,216.7,7.7,216.7Z"/><path class="cls-4" d="M7,211.2a2.9,2.9,0,0,1-3-3,2.4,2.4,0,0,1,2.7-2.6h.6v4.6a2.1,2.1,0,0,0,2-2.3,3.1,3.1,0,0,0-.5-1.7l.6-.4a3.8,3.8,0,0,1,.7,2.2A3,3,0,0,1,7,211.2Zm-.4-1v-3.7a1.6,1.6,0,0,0-1.8,1.7A2,2,0,0,0,6.6,210.2Z"/><path class="cls-4" d="M4.1,203.7v-.8h1A3,3,0,0,1,4,200.5c0-1.3.8-2,2.3-2H10v1H6.5c-1.1,0-1.7.4-1.7,1.4s.4,1.1,1.1,1.8H10v1Z"/><path class="cls-4" d="M53.3,398.2v-1h7.1v-3.9h.8v4.9Z"/><path class="cls-4" d="M58.3,391.9a2.9,2.9,0,1,1,3.1-2.9A3,3,0,0,1,58.3,391.9Zm0-4.8a1.9,1.9,0,1,0,2.2,1.9A2,2,0,0,0,58.3,387.1Z"/><path class="cls-4" d="M52.7,384.3v-1h3.7a2.7,2.7,0,0,1-1.2-2.2c0-1.3.9-2,2.4-2h3.6v1H57.7c-1.1,0-1.6.4-1.6,1.4s.3,1.1,1,1.8h4.1v1Z"/><path class="cls-4" d="M55.4,377.1v-.8h1a2.7,2.7,0,0,1-1.2-2.2c0-1.3.9-2,2.4-2h3.6v1H57.7c-1.1,0-1.6.4-1.6,1.4s.3,1.1,1,1.8h4.1v1Z"/><path class="cls-4" d="M58.3,370.2a3,3,0,0,1-3.1-3,2.5,2.5,0,0,1,2.8-2.6h.6v4.6a2.1,2.1,0,0,0,2-2.3,3.2,3.2,0,0,0-.6-1.7l.7-.4a4.8,4.8,0,0,1,.7,2.2A3,3,0,0,1,58.3,370.2Zm-.5-1v-3.7a1.6,1.6,0,0,0-1.8,1.7A2,2,0,0,0,57.8,369.2Z"/><path class="cls-4" d="M53.4,360.4a.7.7,0,0,1-.8-.8.8.8,0,0,1,1.6,0A.7.7,0,0,1,53.4,360.4Zm2.8-.4v2.7h-.8V359h5.8v1Z"/><path class="cls-4" d="M55.4,355.5v-.8h1a2.7,2.7,0,0,1-1.2-2.2c0-1.3.9-2,2.4-2h3.6v1H57.7c-1.1,0-1.6.4-1.6,1.4s.3,1.1,1,1.8h4.1v1Z"/><path class="cls-4" d="M60.7,348.6l-4.5-4v3.5h-.8v-5h.5l4.5,4.1V343h.8v5.6Z"/><path class="cls-4" d="M58.3,341.4a3,3,0,0,1-3.1-3,2.5,2.5,0,0,1,2.8-2.6h.6v4.6a2.1,2.1,0,0,0,2-2.3,3.2,3.2,0,0,0-.6-1.7l.7-.4a4.8,4.8,0,0,1,.7,2.2A3,3,0,0,1,58.3,341.4Zm-.5-1v-3.7a1.6,1.6,0,0,0-1.8,1.7A2,2,0,0,0,57.8,340.4Z"/><path class="cls-4" d="M59.3,332H53.5v2h-.8v-2.9h6.6a1.1,1.1,0,0,0,1.2-1.2,2.3,2.3,0,0,0-.2-1.1l.7-.2a3.7,3.7,0,0,1,.4,1.5C61.4,331.4,60.6,332,59.3,332Z"/><path class="cls-4" d="M52.7,326.5v-.9h5.8l-3.1-3.1v-1.2l2.3,2.4,3.5-2.7V322l-2.9,2.2,1.3,1.4h1.6v.9Z"/><path class="cls-4" d="M58.3,319.9a2.9,2.9,0,1,1,3.1-2.9A3,3,0,0,1,58.3,319.9Zm0-4.7c-1.3,0-2.2.7-2.2,1.8a2.2,2.2,0,0,0,4.4,0C60.5,315.9,59.6,315.2,58.3,315.2Z"/><path class="cls-4" d="M60.4,312.6l-.6-.5a4.1,4.1,0,0,0,.8-2.5c0-1-.4-1.5-.9-1.5s-.8.2-1.1,1.8-.8,2.3-1.7,2.3-1.7-.8-1.7-2.4a4.6,4.6,0,0,1,.8-2.4l.6.5a3.2,3.2,0,0,0-.6,2c0,1,.4,1.3.8,1.3s.8-.5,1-1.7.9-2.4,1.8-2.4,1.8.9,1.8,2.6A5.6,5.6,0,0,1,60.4,312.6Z"/><path class="cls-4" d="M58.9,303.7H56.2v1.7h-.8v-1.7H53.5v-.8h1.9v-2.9h.8v2.9H59c1,0,1.6-.4,1.6-1.5a4.9,4.9,0,0,0-.3-1.4l.7-.2a4.8,4.8,0,0,1,.4,1.8C61.4,303.2,60.4,303.7,58.9,303.7Z"/><path class="cls-4" d="M58.3,298.2a3,3,0,0,1-3.1-3,2.5,2.5,0,0,1,2.8-2.6h.6v4.6a2.1,2.1,0,0,0,2-2.3,3.2,3.2,0,0,0-.6-1.7l.7-.4a4.8,4.8,0,0,1,.7,2.2A3,3,0,0,1,58.3,298.2Zm-.5-1v-3.7a1.6,1.6,0,0,0-1.8,1.7A2,2,0,0,0,57.8,297.2Z"/><path class="cls-4" d="M55.4,290.7v-.8h1a2.7,2.7,0,0,1-1.2-2.1c0-1.4.9-2.1,2.4-2.1h3.6v1H57.7c-1.1,0-1.6.4-1.6,1.4s.3,1.1,1,1.8h4.1v1Z"/><path class="cls-4" d="M67.7,398.2v-4.8h.9v3.8h2.6V394h.9v3.2h3.5v1Z"/><path class="cls-4" d="M72.7,391.8a3,3,0,0,1-3.1-3,2.5,2.5,0,0,1,2.8-2.6H73v4.6a2.1,2.1,0,0,0,2-2.3,2.5,2.5,0,0,0-.6-1.7l.7-.4a4.8,4.8,0,0,1,.7,2.2A3,3,0,0,1,72.7,391.8Zm-.5-1v-3.7a1.6,1.6,0,0,0-1.8,1.7A2,2,0,0,0,72.2,390.8Z"/><path class="cls-4" d="M69.8,383.7v-.9h1.4a3,3,0,0,1-1.6-2.6,2,2,0,0,1,.3-1.1l.8.2a3.6,3.6,0,0,0-.2,1.1,2.9,2.9,0,0,0,1.7,2.4h3.4v1Z"/><path class="cls-4" d="M73.3,375.7H70.6v1.7h-.8v-1.7H67.9v-.8h1.9v-2.9h.8v2.9h2.8c1,0,1.6-.4,1.6-1.5a4.9,4.9,0,0,0-.3-1.4l.7-.2a4.4,4.4,0,0,1,.4,1.8C75.8,375.2,74.8,375.7,73.3,375.7Z"/><path class="cls-4" d="M67.8,367.6a.7.7,0,0,1-.8-.8.8.8,0,1,1,1.6,0A.7.7,0,0,1,67.8,367.6Zm2.8-.4v2.7h-.8v-3.7h5.8v1Z"/><path class="cls-4" d="M76.7,362.9a1.5,1.5,0,0,1-1.3-.9h-.1a.9.9,0,0,1-.9.6,1.5,1.5,0,0,1-1.1-.7h-.1a1.8,1.8,0,0,1-1.5.7,2.2,2.2,0,0,1-2.1-2.3,1.9,1.9,0,0,1,.2-.8V357h.8v1.6a1.7,1.7,0,0,1,1.2-.5,2.1,2.1,0,0,1,2,2.2,3.6,3.6,0,0,1-.2,1,.6.6,0,0,0,.6.5c.5,0,.7-.5.7-1.3v-1.3c0-1.5.4-2.2,1.4-2.2s2,1.3,2,3.3S77.7,362.9,76.7,362.9Zm-5-3.9a1.3,1.3,0,0,0-1.3,1.3,1.3,1.3,0,0,0,1.3,1.4,1.4,1.4,0,0,0,1.4-1.4A1.3,1.3,0,0,0,71.7,359Zm4.7-1c-.5,0-.7.4-.7,1.3v1.2a1.9,1.9,0,0,1-.1.8c.3.6.6.8,1,.8s1-.7,1-1.9S77,358,76.4,358Z"/><path class="cls-4" d="M73.4,355.7H69.8v-1h3.5c1.1,0,1.6-.4,1.6-1.4s-.3-1.1-1.1-1.8h-4v-.9h5.8v.8h-1a2.9,2.9,0,0,1,1.2,2.2C75.8,355,74.9,355.7,73.4,355.7Z"/><path class="cls-4" d="M69.8,348.3v-.8h1a2.7,2.7,0,0,1-1.2-2.2c0-1.3.9-2,2.4-2h3.6v1H72.1c-1.1,0-1.6.4-1.6,1.4s.3,1.1,1,1.8h4.1v1Z"/><path class="cls-4" d="M76.7,341.3a1.5,1.5,0,0,1-1.3-.9h-.1a.9.9,0,0,1-.9.6,1.5,1.5,0,0,1-1.1-.7h-.1a1.8,1.8,0,0,1-1.5.7,2.2,2.2,0,0,1-2.1-2.3,1.9,1.9,0,0,1,.2-.8v-2.5h.8V337a1.7,1.7,0,0,1,1.2-.5,2.1,2.1,0,0,1,2,2.2,3.6,3.6,0,0,1-.2,1,.6.6,0,0,0,.6.5c.5,0,.7-.5.7-1.3v-1.3c0-1.5.4-2.2,1.4-2.2s2,1.3,2,3.3S77.7,341.3,76.7,341.3Zm-5-3.9a1.3,1.3,0,0,0-1.3,1.3,1.3,1.3,0,0,0,1.3,1.4,1.4,1.4,0,0,0,1.4-1.4A1.3,1.3,0,0,0,71.7,337.4Zm4.7-1c-.5,0-.7.4-.7,1.3v1.2a1.9,1.9,0,0,1-.1.8c.3.6.6.8,1,.8s1-.7,1-1.9S77,336.4,76.4,336.4Z"/><path class="cls-4" d="M74.8,334.2l-.6-.5a4.1,4.1,0,0,0,.8-2.5c0-1-.4-1.5-.9-1.5s-.8.2-1.1,1.8-.8,2.3-1.7,2.3-1.7-.8-1.7-2.4a4.6,4.6,0,0,1,.8-2.4l.6.5a3.2,3.2,0,0,0-.6,2c0,1,.4,1.3.8,1.3s.8-.5,1-1.7.9-2.4,1.8-2.4,1.8.9,1.8,2.6A5.6,5.6,0,0,1,74.8,334.2Z"/><path class="cls-4" d="M73.7,324.8H67.9v2h-.8v-2.9h6.6a1.1,1.1,0,0,0,1.2-1.2,2.3,2.3,0,0,0-.2-1.1l.7-.2a3.7,3.7,0,0,1,.4,1.5C75.8,324.2,75,324.8,73.7,324.8Z"/><path class="cls-4" d="M72.7,319.9a2.9,2.9,0,1,1,3.1-2.9A3,3,0,0,1,72.7,319.9Zm0-4.7c-1.3,0-2.2.7-2.2,1.8a2.2,2.2,0,0,0,4.4,0C74.9,315.9,74,315.2,72.7,315.2Z"/><path class="cls-4" d="M67.1,312.3v-1h3.7a2.7,2.7,0,0,1-1.2-2.1c0-1.4.9-2.1,2.4-2.1h3.6v1H72.1c-1.1,0-1.6.4-1.6,1.4s.3,1.1,1,1.8h4.1v1Z"/><path class="cls-4" d="M69.8,305.1v-.8h1a2.7,2.7,0,0,1-1.2-2.1c0-1.4.9-2.1,2.4-2.1h3.6v1H72.1c-1.1,0-1.6.4-1.6,1.4s.3,1.1,1,1.8h4.1v1Z"/><path class="cls-4" d="M57.5,231.4v-1h7v-3.9h.9v4.9Z"/><path class="cls-4" d="M62.5,225.1a2.9,2.9,0,1,1,3-2.9A2.9,2.9,0,0,1,62.5,225.1Zm0-4.8c-1.4,0-2.3.8-2.3,1.9s.9,1.9,2.3,1.9a1.9,1.9,0,1,0,0-3.8Z"/><path class="cls-4" d="M56.8,217.5v-1h3.7a3,3,0,0,1-1.1-2.2c0-1.3.8-2,2.3-2h3.7v1H61.9c-1.1,0-1.7.4-1.7,1.4s.4,1.1,1.1,1.8h4.1v1Z"/><path class="cls-4" d="M59.5,210.3v-.8h1a3,3,0,0,1-1.1-2.2c0-1.3.8-2,2.3-2h3.7v1H61.9c-1.1,0-1.7.4-1.7,1.4s.4,1.1,1.1,1.8h4.1v1Z"/><path class="cls-4" d="M66.4,203.3a1.7,1.7,0,0,1-1.3-.9h0a1.2,1.2,0,0,1-1,.6,1.7,1.7,0,0,1-1.1-.7h0a1.8,1.8,0,0,1-1.5.7,2.2,2.2,0,0,1-2.1-2.3,2.8,2.8,0,0,1,.1-.9v-2.4h.8v1.5a2.1,2.1,0,0,1,1.2-.4,2,2,0,0,1,2,2.2,3.6,3.6,0,0,1-.2,1,.8.8,0,0,0,.7.4q.6,0,.6-1.2v-1.3c0-1.5.4-2.2,1.4-2.2s2,1.3,2,3.3S67.5,203.3,66.4,203.3Zm-4.9-3.9a1.3,1.3,0,0,0-1.4,1.3,1.4,1.4,0,0,0,2.8,0A1.3,1.3,0,0,0,61.5,199.4Zm4.7-1c-.6,0-.7.4-.7,1.3v1.2c0,.3-.1.6-.1.8s.6.8.9.8,1-.7,1-1.9S66.8,198.4,66.2,198.4Z"/><path class="cls-4" d="M62.4,196.2a2.9,2.9,0,0,1-3-3,2.5,2.5,0,0,1,2.7-2.7h.6v4.6a2.1,2.1,0,0,0,2-2.3,3.7,3.7,0,0,0-.5-1.8l.6-.3a3.8,3.8,0,0,1,.7,2.2A3,3,0,0,1,62.4,196.2Zm-.4-1v-3.8a1.7,1.7,0,0,0-1.8,1.8A2,2,0,0,0,62,195.2Z"/><path class="cls-4" d="M59.5,189.1v-.8h.8a1.5,1.5,0,0,1-.9-1.3,1,1,0,0,1,1-1.1c-.6-.4-1-.7-1-1.4s.6-1.3,1.8-1.3h4.2v1H61.3c-.7,0-1.1.2-1.1.6s.3.6.9,1h4.3v.9H61.3c-.7,0-1.1.1-1.1.6s.3.6.9.9h4.3v1Z"/><path class="cls-4" d="M62.4,181.8a2.9,2.9,0,0,1-3-3,2.5,2.5,0,0,1,2.7-2.7h.6v4.6a2.1,2.1,0,0,0,2-2.3,3.7,3.7,0,0,0-.5-1.8l.6-.3a3.8,3.8,0,0,1,.7,2.2A3,3,0,0,1,62.4,181.8Zm-.4-1V177a1.7,1.7,0,0,0-1.8,1.8A2,2,0,0,0,62,180.8Z"/><path class="cls-4" d="M57.5,172a.7.7,0,0,1-.7-.8.8.8,0,0,1,.7-.8.8.8,0,0,1,.8.8A.7.7,0,0,1,57.5,172Zm2.8-.4v2.7h-.8v-3.7h5.9v1Z"/><path class="cls-4" d="M59.5,167.1v-.8h1a3,3,0,0,1-1.1-2.2c0-1.3.8-2,2.3-2h3.7v1H61.9c-1.1,0-1.7.4-1.7,1.4s.4,1.1,1.1,1.8h4.1v1Z"/><path class="cls-4" d="M56.8,159.7v-1h5.8l-3.1-3.1v-1.2l2.3,2.4,3.6-2.7v1.1l-3,2.2,1.4,1.3h1.6v1Z"/><path class="cls-4" d="M62.5,153.1a2.9,2.9,0,1,1,3-2.9A2.9,2.9,0,0,1,62.5,153.1Zm0-4.8c-1.4,0-2.3.8-2.3,1.9s.9,1.9,2.3,1.9a1.9,1.9,0,1,0,0-3.8Z"/><path class="cls-4" d="M64.6,145.7l-.7-.4a4.1,4.1,0,0,0,.8-2.5c0-1-.4-1.5-.9-1.5s-.7.2-1.1,1.8-.8,2.3-1.7,2.3-1.6-.8-1.6-2.4a4.5,4.5,0,0,1,.7-2.4l.7.5a3.2,3.2,0,0,0-.6,2c0,.9.3,1.3.8,1.3s.7-.5,1-1.7.9-2.4,1.8-2.4,1.7.9,1.7,2.6A4.9,4.9,0,0,1,64.6,145.7Z"/><path class="cls-4" d="M63.1,136.9H60.3v1.7h-.7v-1.7H57.7v-.9h1.8v-2.8h.8v2.8h2.8c1,0,1.6-.3,1.6-1.4a2.9,2.9,0,0,0-.3-1.4l.8-.2a7.4,7.4,0,0,1,.3,1.8C65.5,136.4,64.5,136.9,63.1,136.9Z"/><path class="cls-4" d="M62.4,131.4a2.9,2.9,0,0,1-3-3,2.5,2.5,0,0,1,2.7-2.7h.6v4.6a2.1,2.1,0,0,0,2-2.3,3.7,3.7,0,0,0-.5-1.8l.6-.3a3.8,3.8,0,0,1,.7,2.2A3,3,0,0,1,62.4,131.4Zm-.4-1v-3.8a1.7,1.7,0,0,0-1.8,1.8A2,2,0,0,0,62,130.4Z"/><path class="cls-4" d="M59.5,123.9v-.8h1a3,3,0,0,1-1.1-2.2c0-1.3.8-2,2.3-2h3.7v1H61.9c-1.1,0-1.7.4-1.7,1.4s.4,1.1,1.1,1.8h4.1v1Z"/><path class="cls-4" d="M71.9,232.1V231h3.3v-3.2H71.9v-1h7.9v1H76.1V231h3.7v1.1Z"/><path class="cls-4" d="M71.9,222.4a.7.7,0,0,1-.7-.8.8.8,0,0,1,.7-.8.8.8,0,0,1,.8.8A.7.7,0,0,1,71.9,222.4Zm2.8-.4v2.7h-.8V221h5.9v1Z"/><path class="cls-4" d="M77.8,215.6H72v2h-.8v-2.9h6.7a1.1,1.1,0,0,0,1.2-1.2,2.6,2.6,0,0,0-.3-1.1l.8-.2a3.7,3.7,0,0,1,.3,1.5C79.9,215,79.2,215.6,77.8,215.6Z"/><path class="cls-4" d="M74.7,208.5v1.7H74v-1.7h-.5a2.1,2.1,0,0,1-2.3-2.4,4.5,4.5,0,0,1,.3-1.6l.8.2a2.2,2.2,0,0,0-.3,1.4c0,1,.6,1.4,1.5,1.4h.5v-2.4h.8v2.4h5.1v1Z"/><path class="cls-4" d="M79,203.3l-.7-.4a4.1,4.1,0,0,0,.8-2.5c0-1-.4-1.5-.9-1.5s-.7.2-1.1,1.8-.8,2.3-1.7,2.3-1.6-.8-1.6-2.4a4.5,4.5,0,0,1,.7-2.4l.7.5a3.2,3.2,0,0,0-.6,2c0,.9.3,1.3.8,1.3s.7-.5,1-1.7.9-2.4,1.8-2.4,1.7.9,1.7,2.6A4.9,4.9,0,0,1,79,203.3Z"/><path class="cls-4" d="M77.8,194H72v2h-.8v-2.9h6.7a1.1,1.1,0,0,0,1.2-1.2,2.6,2.6,0,0,0-.3-1.1l.8-.2a3.7,3.7,0,0,1,.3,1.5C79.9,193.4,79.2,194,77.8,194Z"/><path class="cls-4" d="M76.9,189.1a2.9,2.9,0,1,1,3-2.9A2.9,2.9,0,0,1,76.9,189.1Zm0-4.8c-1.4,0-2.3.8-2.3,1.9s.9,1.9,2.3,1.9a1.9,1.9,0,1,0,0-3.8Z"/><path class="cls-4" d="M71.2,181.5v-1h3.7a3,3,0,0,1-1.1-2.2c0-1.3.8-2,2.3-2h3.7v1H76.3c-1.1,0-1.7.4-1.7,1.4s.4,1.1,1.1,1.8h4.1v1Z"/><path class="cls-4" d="M73.9,174.3v-.8h1a3,3,0,0,1-1.1-2.2c0-1.3.8-2,2.3-2h3.7v1H76.3c-1.1,0-1.7.4-1.7,1.4s.4,1.1,1.1,1.8h4.1v1Z"/><path class="cls-4" d="M274,155.6h-4.9V155H274c1.6,0,2.2-.4,2.2-.9s-.6-.9-2.2-.9h-4.9v-.6H274c2.2,0,3.1.6,3.1,1.5S276.2,155.6,274,155.6Z"/><path class="cls-4" d="M271.1,151.4V151h1c-.6-.4-1.1-.7-1.1-1.3s.8-1.1,2.3-1.1h3.6v.6h-3.5c-1.1,0-1.6.2-1.6.7s.4.7,1.1,1.1h4v.5Z"/><path class="cls-4" d="M271.1,147.3v-.4h.8c-.6-.3-.9-.7-.9-1.1s1.1-1.4,2.9-1.4,3.2.7,3.2,1.5a1.4,1.4,0,0,1-.8,1h3.1v.5Zm2.8-2.4c-1.2,0-2.1.3-2.1.9s.3.6.9,1h2.9a1.3,1.3,0,0,0,.7-.9C276.3,145.3,275.4,144.9,273.9,144.9Z"/><path class="cls-4" d="M271.1,142.9v-.5h1.4c-.9-.4-1.5-.9-1.5-1.5a.8.8,0,0,1,.2-.7l.9.2c-.2.2-.2.3-.2.6s.4.9,1.6,1.3h3.4v.6Z"/><path class="cls-4" d="M274,139.4c-1.9,0-3-.8-3-1.6s1.1-1.7,3-1.7,3.1.8,3.1,1.7S276,139.4,274,139.4Zm0-2.7c-1.3,0-2.2.4-2.2,1.1s.9,1,2.2,1,2.3-.4,2.3-1S275.4,136.7,274,136.7Z"/><path class="cls-4" d="M274,135.3c-1.9,0-3-.7-3-1.5s.2-.7.7-1h-3.3v-.5h8.5v.4h-.7c.5.3.9.7.9,1.1S276,135.3,274,135.3Zm1.4-2.5h-2.9c-.5.3-.7.6-.7.9s.9,1,2.2,1,2.3-.3,2.3-.9S276,133.1,275.4,132.8Z"/><path class="cls-4" d="M274.7,131.1h-3.6v-.5h3.5c1.1,0,1.6-.3,1.6-.8s-.3-.7-1.1-1h-4v-.6h5.8v.5h-1c.7.4,1.2.8,1.2,1.3S276.3,131.1,274.7,131.1Z"/><path class="cls-4" d="M268.4,126.8v-.5h5.8l-3.1-1.8v-.7l2.3,1.3,3.5-1.4v.6l-2.9,1.2,1.4.8h1.5v.5Z"/><path class="cls-4" d="M274.7,122.1h-2.8v.9h-.7v-.9h-1.9v-.5h1.9v-1.6h.8v1.6h2.8c1,0,1.6-.2,1.6-.8a1.1,1.1,0,0,0-.3-.8h.7a1.8,1.8,0,0,1,.4,1C277.1,121.8,276.1,122.1,274.7,122.1Z"/><path class="cls-4" d="M269.1,117.5c-.4,0-.8-.2-.8-.5s.4-.4.8-.4.8.2.8.4S269.6,117.5,269.1,117.5Zm2.8-.3v1.6h-.8v-2.1h5.8v.5Z"/><path class="cls-4" d="M271.1,115v-.6l3.3-.8,1.7-.3h0l-1.7-.3-3.3-.8v-.5l5.8,1.3v.7Z"/><path class="cls-4" d="M274,110.8c-1.9,0-3-.8-3-1.7s1.1-1.5,2.7-1.5h.6v2.6c1.3-.1,2-.6,2-1.3a1.2,1.2,0,0,0-.6-1l.7-.2a1.6,1.6,0,0,1,.7,1.3C277.1,110,276,110.8,274,110.8Zm-.5-.6v-2.1c-1.2,0-1.8.4-1.8,1S272.4,110.1,273.5,110.2Z"/><path class="cls-4" d="M283.5,154.4v-.6l7.8-1.5v.6l-2.4.4v1.6l2.4.4v.6Zm4.6.4v-1.4l-1.2.3-2.6.4h0l2.6.5Z"/><path class="cls-4" d="M290.7,150.9h.6v.4h-8.5v-.5h3.5a1.5,1.5,0,0,1-.9-1.1c0-.9,1.1-1.4,2.9-1.4s3.2.7,3.2,1.5A1.4,1.4,0,0,1,290.7,150.9Zm-2.4-1.9c-1.2,0-2.1.2-2.1.9s.3.6.9,1H290a1.3,1.3,0,0,0,.7-.9C290.7,149.4,289.8,149,288.3,149Z"/><path class="cls-4" d="M285.5,147.9v-.5l3.4-.4,1.6-.2h0l-1.6-.2-3-.4v-.6l3-.4,1.6-.2h-1.6l-3.4-.4v-.6l5.8.8v.7l-2.7.4h-1.8l1.8.2,2.7.4v.7Z"/><path class="cls-4" d="M288.4,143.4c-1.9,0-3-.8-3-1.7s1.1-1.5,2.7-1.5h.6v2.6c1.3-.1,2-.6,2-1.3a1.2,1.2,0,0,0-.6-1l.7-.2a1.5,1.5,0,0,1,.7,1.2C291.5,142.6,290.4,143.4,288.4,143.4Zm-.5-.5v-2.2c-1.2.1-1.8.5-1.8,1S286.8,142.7,287.9,142.9Z"/><path class="cls-4" d="M290.6,139.3l-.7-.2a1.9,1.9,0,0,0,.8-1.5.8.8,0,0,0-.9-.8c-.4,0-.8.1-1.1,1a1.6,1.6,0,0,1-1.7,1.3c-.9,0-1.6-.4-1.6-1.4a1.7,1.7,0,0,1,.7-1.3l.6.3a1.7,1.7,0,0,0-.6,1.1c0,.6.4.8.9.8s.7-.3.9-1,1-1.4,1.8-1.4a1.6,1.6,0,0,1,1.8,1.5A2.2,2.2,0,0,1,290.6,139.3Z"/><path class="cls-4" d="M288.4,135.3c-1.9,0-3-.8-3-1.7s1.1-1.5,2.7-1.5h.6v2.6c1.3-.1,2-.6,2-1.3a1.2,1.2,0,0,0-.6-1l.7-.2a1.6,1.6,0,0,1,.7,1.3C291.5,134.5,290.4,135.3,288.4,135.3Zm-.5-.6v-2.1c-1.2,0-1.8.4-1.8,1S286.8,134.6,287.9,134.7Z"/><path class="cls-4" d="M285.5,131v-.5h1c-.6-.4-1.1-.8-1.1-1.3s.8-1.1,2.3-1.1h3.6v.5h-3.5c-1.1,0-1.6.3-1.6.8s.4.7,1.1,1.1h4v.5Z"/><path class="cls-4" d="M282.8,126.9v-.5h3.7c-.6-.4-1.1-.7-1.1-1.3s.8-1.1,2.3-1.1h3.6v.6h-3.5c-1.1,0-1.6.2-1.6.7s.4.7,1.1,1.1h4v.5Z"/><path class="cls-4" d="M288.4,123c-1.9,0-3-.8-3-1.7s1.1-1.5,2.7-1.5h.6v2.6c1.3,0,2-.6,2-1.2a1.2,1.2,0,0,0-.6-1l.7-.3a1.9,1.9,0,0,1,.7,1.3C291.5,122.2,290.4,123,288.4,123Zm-.5-.6v-2.1c-1.2.1-1.8.4-1.8,1S286.8,122.3,287.9,122.4Z"/><path class="cls-4" d="M283.5,117.5c-.4,0-.8-.2-.8-.5s.4-.4.8-.4.8.2.8.4S284,117.5,283.5,117.5Zm2.8-.3v1.6h-.8v-2.1h5.8v.5Z"/><path class="cls-4" d="M289.1,113.9h-2.8v.9h-.7v-.9h-1.9v-.5h1.9v-1.6h.8v1.6h2.8c1,0,1.6-.2,1.6-.8a1.3,1.3,0,0,0-.3-.8h.7a1.8,1.8,0,0,1,.4,1C291.5,113.6,290.5,113.9,289.1,113.9Z"/><path class="cls-4" d="M459.6,329.9v-1.2l3.3-1.1,1.3-.4h0l-1.3-.4-3.3-1.1v-1.2h7.8v.9h-6.7l1.5.4,3.1,1.2v.7l-3.1,1.1-1.5.4h0l2.8-.2h3.9v.9Z"/><path class="cls-4" d="M459.7,319.5a.7.7,0,0,1-.7-.7.7.7,0,0,1,1.4,0A.7.7,0,0,1,459.7,319.5Zm0,2.3c-.4,0-.7-.2-.7-.6a.7.7,0,0,1,1.4,0C460.4,321.6,460.1,321.8,459.7,321.8Zm4.8,1.1a2.9,2.9,0,1,1,3.1-2.9A2.9,2.9,0,0,1,464.5,322.9Zm0-4.8a1.9,1.9,0,1,0,0,3.8c1.4,0,2.3-.8,2.3-1.9S465.9,318.1,464.5,318.1Z"/><path class="cls-4" d="M468.5,315.5c-.5,0-.9-.3-1.3-.9h0a1.2,1.2,0,0,1-1,.6,1.5,1.5,0,0,1-1.1-.7h0a2,2,0,0,1-1.6.7,2.1,2.1,0,0,1-2-2.3,2.8,2.8,0,0,1,.1-.9v-2.4h.8v1.6a1.7,1.7,0,0,1,1.2-.5,2.1,2.1,0,0,1,2,2.2,3.6,3.6,0,0,1-.2,1,.7.7,0,0,0,.6.5c.5,0,.7-.5.7-1.3v-1.3c0-1.5.4-2.2,1.4-2.2s2,1.3,2,3.3S469.5,315.5,468.5,315.5Zm-5-3.9a1.3,1.3,0,0,0-1.3,1.3,1.3,1.3,0,0,0,1.3,1.4,1.4,1.4,0,0,0,1.4-1.4A1.3,1.3,0,0,0,463.5,311.6Zm4.7-1c-.5,0-.7.4-.7,1.3v1.2a1.9,1.9,0,0,1-.1.8c.3.6.7.8,1,.8s1-.7,1-1.9S468.8,310.6,468.2,310.6Z"/><path class="cls-4" d="M465.5,306.2h-5.8v2h-.8v-2.9h6.6a1.1,1.1,0,0,0,1.3-1.2,2.6,2.6,0,0,0-.3-1.1l.7-.2a2.6,2.6,0,0,1,.4,1.5C467.6,305.6,466.9,306.2,465.5,306.2Z"/><path class="cls-4" d="M459.6,298.6a.8.8,0,0,1-.8-.8.9.9,0,0,1,.8-.8.8.8,0,0,1,.8.8A.7.7,0,0,1,459.6,298.6Zm2.8-.4v2.7h-.8v-3.7h5.8v1Z"/><path class="cls-4" d="M464.5,293.8a2.9,2.9,0,0,1-3-3.2,2.7,2.7,0,0,1,.8-2.1l.6.5a2.3,2.3,0,1,0,3.9,1.6,3,3,0,0,0-.8-1.8l.7-.5a4.2,4.2,0,0,1,.9,2.4A2.9,2.9,0,0,1,464.5,293.8Z"/><path class="cls-4" d="M458.9,286.5v-1h3.7a3,3,0,0,1-1.1-2.2c0-1.3.8-2,2.3-2h3.6v1h-3.5c-1.1,0-1.6.4-1.6,1.4s.4,1.1,1.1,1.8h4v1Z"/><path class="cls-4" d="M464.5,279.6a2.9,2.9,0,0,1-3-3,2.4,2.4,0,0,1,2.7-2.6h.6v4.6a2.1,2.1,0,0,0,2-2.3,2.5,2.5,0,0,0-.6-1.7l.7-.4a3.8,3.8,0,0,1,.7,2.2A3,3,0,0,1,464.5,279.6Zm-.5-1v-3.7a1.6,1.6,0,0,0-1.8,1.7A2.1,2.1,0,0,0,464,278.6Z"/><path class="cls-4" d="M459.6,263v-1.2l7.8-2.6v1l-2.4.8v2.8l2.4.8v1Zm4.6.6v-2.4l-1.2.4-2.6.8h0l2.6.8Z"/><path class="cls-4" d="M461.6,257.1v-.9H463a2.9,2.9,0,0,1-1.5-2.6,2,2,0,0,1,.2-1.1l.8.2a3.6,3.6,0,0,0-.2,1.1,2.9,2.9,0,0,0,1.7,2.4h3.4v1Z"/><path class="cls-4" d="M466.8,249.6h.6v.8h-8.5v-1h3.4a3,3,0,0,1-.8-2c0-1.5,1.1-2.4,2.9-2.4s3.2,1.3,3.2,2.7A3.1,3.1,0,0,1,466.8,249.6Zm-2.4-3.5c-1.3,0-2.1.5-2.1,1.7a2.6,2.6,0,0,0,.9,1.7h2.9a2.3,2.3,0,0,0,.6-1.6C466.7,246.9,465.9,246.1,464.4,246.1Z"/><path class="cls-4" d="M464.5,243.6a2.9,2.9,0,0,1-3-3,2.4,2.4,0,0,1,2.7-2.6h.6v4.6a2.1,2.1,0,0,0,2-2.3,2.5,2.5,0,0,0-.6-1.7l.7-.4a3.8,3.8,0,0,1,.7,2.2A3,3,0,0,1,464.5,243.6Zm-.5-1v-3.7a1.6,1.6,0,0,0-1.8,1.7A2.1,2.1,0,0,0,464,242.6Z"/><path class="cls-4" d="M459.6,233.8a.8.8,0,0,1-.8-.8.9.9,0,0,1,.8-.8.8.8,0,0,1,.8.8A.7.7,0,0,1,459.6,233.8Zm2.8-.4v2.7h-.8v-3.7h5.8v1Z"/><path class="cls-4" d="M465.2,227.5h-2.8v1.7h-.7v-1.7h-1.9v-.9h1.9v-2.8h.8v2.8h2.8c1,0,1.6-.3,1.6-1.4a2.9,2.9,0,0,0-.3-1.4l.7-.2a4.4,4.4,0,0,1,.4,1.8C467.6,227,466.6,227.5,465.2,227.5Z"/><path class="cls-4" d="M466.7,222l-.7-.5a4.1,4.1,0,0,0,.8-2.5c0-1-.4-1.5-.9-1.5s-.8.2-1.1,1.8-.8,2.3-1.7,2.3-1.6-.8-1.6-2.4a4.5,4.5,0,0,1,.7-2.4l.6.5a3.9,3.9,0,0,0-.6,2c0,.9.4,1.3.9,1.3s.7-.5.9-1.7.9-2.4,1.8-2.4,1.8.9,1.8,2.6A5.5,5.5,0,0,1,466.7,222Z"/><path class="cls-4" d="M466.9,214.8l-4.5-4v3.5h-.8v-5h.5l4.5,4v-4.1h.8v5.6Z"/><path class="cls-4" d="M464.5,207.6a2.9,2.9,0,0,1-3-3,2.4,2.4,0,0,1,2.7-2.6h.6v4.6a2.1,2.1,0,0,0,2-2.3,2.5,2.5,0,0,0-.6-1.7l.7-.4a3.8,3.8,0,0,1,.7,2.2A3,3,0,0,1,464.5,207.6Zm-.5-1v-3.7a1.6,1.6,0,0,0-1.8,1.7A2.1,2.1,0,0,0,464,206.6Z"/><path class="cls-4" d="M459.6,197.8a.8.8,0,0,1-.8-.8.9.9,0,0,1,.8-.8.8.8,0,0,1,.8.8A.7.7,0,0,1,459.6,197.8Zm2.8-.4v2.7h-.8v-3.7h5.8v1Z"/><path class="cls-4" d="M465.2,191.5h-2.8v1.7h-.7v-1.7h-1.9v-.8h1.9v-2.9h.8v2.9h2.8c1,0,1.6-.4,1.6-1.5a2.9,2.9,0,0,0-.3-1.4l.7-.2a4.4,4.4,0,0,1,.4,1.8C467.6,191,466.6,191.5,465.2,191.5Z"/><path class="cls-4" d="M474,329.6v-2.2c0-1.6.5-2.7,1.9-2.7a1.6,1.6,0,0,1,1.7,1.4h0c.2-1.2.8-1.9,1.9-1.9s2.3,1.2,2.3,3v2.4Zm3.3-2c0-1.4-.5-1.9-1.3-1.9s-1.2.6-1.2,1.8v1.1h2.5Zm3.7-.3c0-1.3-.5-2.1-1.5-2.1s-1.4.8-1.4,2.1v1.3H481Z"/><path class="cls-4" d="M476,321.9V321h1.4a2.9,2.9,0,0,1-1.5-2.6,2,2,0,0,1,.2-1.1l.9.2a2,2,0,0,0-.3,1.1,2.9,2.9,0,0,0,1.7,2.4h3.4v1Z"/><path class="cls-4" d="M479.6,315.5H476v-1h3.5c1.1,0,1.6-.4,1.6-1.4s-.3-1.1-1.1-1.8h-4v-1h5.8v.9h-1a2.9,2.9,0,0,1,1.2,2.2C482,314.8,481.2,315.5,479.6,315.5Z"/><path class="cls-4" d="M479.6,306.7h-2.8v1.7h-.7v-1.7h-1.9v-.9H476v-2.8h.8v2.8h2.8c1,0,1.6-.3,1.6-1.4a2.9,2.9,0,0,0-.3-1.4l.7-.2a4.4,4.4,0,0,1,.4,1.8C482,306.2,481,306.7,479.6,306.7Z"/><path class="cls-4" d="M479.6,299.5h-2.8v1.7h-.7v-1.7h-1.9v-.9H476v-2.8h.8v2.8h2.8c1,0,1.6-.3,1.6-1.4a2.9,2.9,0,0,0-.3-1.4l.7-.2a4.4,4.4,0,0,1,.4,1.8C482,299,481,299.5,479.6,299.5Z"/><path class="cls-4" d="M478.9,294.1a2.9,2.9,0,1,1,3.1-2.9A2.9,2.9,0,0,1,478.9,294.1Zm0-4.8a1.9,1.9,0,1,0,0,3.8c1.4,0,2.3-.8,2.3-1.9S480.3,289.3,478.9,289.3Z"/><path class="cls-4" d="M474,277.4v-1.2l7.8-2.6v1l-2.4.8v2.8l2.4.8v1Zm4.6.6v-2.4l-1.2.4-2.6.8h0l2.6.8Z"/><path class="cls-4" d="M476,271.5v-.9h1.4a2.9,2.9,0,0,1-1.5-2.6,2,2,0,0,1,.2-1.1l.9.2a2,2,0,0,0-.3,1.1,2.9,2.9,0,0,0,1.7,2.4h3.4v1Z"/><path class="cls-4" d="M481.2,264h.6v.8h-8.5v-1h3.4a2.9,2.9,0,0,1-.8-1.9c0-1.6,1.1-2.5,2.9-2.5s3.2,1.3,3.2,2.7A3.1,3.1,0,0,1,481.2,264Zm-2.4-3.5c-1.3,0-2.1.5-2.1,1.7a2.6,2.6,0,0,0,.9,1.7h2.9a2.3,2.3,0,0,0,.6-1.6C481.1,261.3,480.3,260.5,478.8,260.5Z"/><path class="cls-4" d="M478.9,258a2.9,2.9,0,0,1-3-3,2.4,2.4,0,0,1,2.7-2.6h.6V257a2.1,2.1,0,0,0,2-2.3,2.5,2.5,0,0,0-.6-1.7l.7-.4a3.8,3.8,0,0,1,.7,2.2A3,3,0,0,1,478.9,258Zm-.5-1v-3.7a1.6,1.6,0,0,0-1.8,1.7A2.1,2.1,0,0,0,478.4,257Z"/><path class="cls-4" d="M474,248.2a.8.8,0,0,1-.8-.8.9.9,0,0,1,.8-.8.8.8,0,0,1,.8.8A.7.7,0,0,1,474,248.2Zm2.8-.4v2.7H476v-3.7h5.8v1Z"/><path class="cls-4" d="M479.6,241.9h-2.8v1.7h-.7v-1.7h-1.9V241H476v-2.9h.8V241h2.8c1,0,1.6-.4,1.6-1.5a2.9,2.9,0,0,0-.3-1.4l.7-.2a4.4,4.4,0,0,1,.4,1.8C482,241.4,481,241.9,479.6,241.9Z"/><path class="cls-4" d="M481.1,236.4l-.7-.5a4.1,4.1,0,0,0,.8-2.5c0-1-.4-1.5-.9-1.5s-.8.2-1.1,1.8-.8,2.3-1.7,2.3-1.6-.8-1.6-2.4a4.5,4.5,0,0,1,.7-2.4l.6.5a3.9,3.9,0,0,0-.6,2c0,.9.4,1.3.9,1.3s.7-.5.9-1.7.9-2.4,1.8-2.4,1.8.9,1.8,2.6A5.5,5.5,0,0,1,481.1,236.4Z"/><path class="cls-4" d="M481.3,229.2l-4.5-4v3.5H476v-5h.5l4.5,4v-4.1h.8v5.6Z"/><path class="cls-4" d="M478.9,222a2.9,2.9,0,0,1-3-3,2.4,2.4,0,0,1,2.7-2.6h.6V221a2.1,2.1,0,0,0,2-2.3,2.5,2.5,0,0,0-.6-1.7l.7-.4a3.8,3.8,0,0,1,.7,2.2A3,3,0,0,1,478.9,222Zm-.5-1v-3.7a1.6,1.6,0,0,0-1.8,1.7A2,2,0,0,0,478.4,221Z"/><path class="cls-4" d="M474,212.2a.8.8,0,0,1-.8-.8.9.9,0,0,1,.8-.8.8.8,0,0,1,.8.8A.7.7,0,0,1,474,212.2Zm2.8-.4v2.7H476v-3.7h5.8v1Z"/><path class="cls-4" d="M479.6,205.9h-2.8v1.7h-.7v-1.7h-1.9V205H476v-2.9h.8V205h2.8c1,0,1.6-.4,1.6-1.5a2.9,2.9,0,0,0-.3-1.4l.7-.2a4.4,4.4,0,0,1,.4,1.8C482,205.4,481,205.9,479.6,205.9Z"/><path class="cls-4" d="M446.4,75.7l-.7-.6a3.3,3.3,0,0,0,1-2.3c0-1.1-.5-1.7-1.2-1.7s-1.1.6-1.5,1.4l-.5,1.1a2.1,2.1,0,0,1-2,1.7,2.2,2.2,0,0,1-2.1-2.5,3.6,3.6,0,0,1,1-2.5l.6.6a2.9,2.9,0,0,0-.7,1.9c0,.9.4,1.5,1.1,1.5s1.1-.7,1.4-1.4l.4-1.1a2.2,2.2,0,0,1,2.1-1.7c1.3,0,2.3,1,2.3,2.8A4,4,0,0,1,446.4,75.7Z"/><path class="cls-4" d="M445.9,68.3c-1.3,0-1.9-1.2-2.2-4.2-.8,0-1.4.4-1.4,1.6a3.5,3.5,0,0,0,.7,2l-.7.4a5,5,0,0,1-.8-2.6,2.2,2.2,0,0,1,2.4-2.4h3.5v.8h-.8a3.7,3.7,0,0,1,1,2.3A1.7,1.7,0,0,1,445.9,68.3Zm0-4.2h-1.5c.2,2.5.7,3.3,1.4,3.3s1-.6,1-1.3A3,3,0,0,0,445.9,64.1Z"/><path class="cls-4" d="M441.6,61.4v-.8h.8a1.3,1.3,0,0,1-.9-1.3c0-.6.3-.9,1-1.1a1.4,1.4,0,0,1-1-1.4c0-.8.6-1.3,1.8-1.3h4.1v1h-4.1c-.6,0-1,.2-1,.6s.3.7.9,1h4.2v.9h-4.1c-.6,0-1,.1-1,.6s.3.7.9.9h4.2v1Z"/><path class="cls-4" d="M446.7,54.1l-.7-.5a3.9,3.9,0,0,0,.8-2.5c0-1-.4-1.5-.9-1.5s-.8.2-1.1,1.8-.8,2.3-1.7,2.3-1.6-.8-1.6-2.4a4.5,4.5,0,0,1,.7-2.4l.6.5a4.3,4.3,0,0,0-.6,2c0,1,.4,1.3.9,1.3s.7-.5.9-1.7.9-2.4,1.8-2.4,1.8.9,1.8,2.6A5.3,5.3,0,0,1,446.7,54.1Z"/><path class="cls-4" d="M445.2,45.2h-2.8v1.7h-.7V45.2h-1.9v-.8h1.9V41.4h.8v2.9h2.8c1,0,1.6-.4,1.6-1.5a2.9,2.9,0,0,0-.3-1.4l.7-.2a4.8,4.8,0,0,1,.4,1.8C447.6,44.7,446.6,45.2,445.2,45.2Z"/><path class="cls-4" d="M445.9,39.5c-1.3,0-1.9-1.2-2.2-4.2-.8,0-1.4.4-1.4,1.6a3.5,3.5,0,0,0,.7,2l-.7.4a5,5,0,0,1-.8-2.6,2.2,2.2,0,0,1,2.4-2.4h3.5v.8h-.8a3.7,3.7,0,0,1,1,2.3A1.7,1.7,0,0,1,445.9,39.5Zm0-4.2h-1.5c.2,2.5.7,3.3,1.4,3.3s1-.6,1-1.3A3,3,0,0,0,445.9,35.3Z"/><path class="cls-4" d="M448.5,32.5c-.5,0-.9-.4-1.3-1h0a1.2,1.2,0,0,1-1,.6,1.5,1.5,0,0,1-1.1-.7h0a2,2,0,0,1-1.6.7,2.1,2.1,0,0,1-2-2.3,1.9,1.9,0,0,1,.1-.8V26.6h.8v1.5a1.7,1.7,0,0,1,1.2-.5,2.1,2.1,0,0,1,2,2.2,3.6,3.6,0,0,1-.2,1,.7.7,0,0,0,.6.5c.5,0,.7-.5.7-1.2V28.7c0-1.5.4-2.2,1.4-2.2s2,1.3,2,3.3S449.5,32.5,448.5,32.5Zm-5-4a1.3,1.3,0,0,0-1.3,1.3,1.3,1.3,0,0,0,1.3,1.4,1.3,1.3,0,0,0,1.4-1.4A1.3,1.3,0,0,0,443.5,28.5Zm4.7-1c-.5,0-.7.4-.7,1.3V30a2.8,2.8,0,0,1-.1.9,1.3,1.3,0,0,0,1,.7c.6,0,1-.7,1-1.9S448.8,27.5,448.2,27.5Z"/><path class="cls-4" d="M444.5,25.3a2.9,2.9,0,0,1-3-3,2.4,2.4,0,0,1,2.7-2.6h.6v4.6a2.1,2.1,0,0,0,2-2.3,2.5,2.5,0,0,0-.6-1.7l.7-.4a3.9,3.9,0,0,1,.7,2.3A3,3,0,0,1,444.5,25.3Zm-.5-1V20.6a1.6,1.6,0,0,0-1.8,1.7A2,2,0,0,0,444,24.3Z"/><path class="cls-4" d="M438.9,13.8v-.9l10.4,3.9v.9Z"/><path class="cls-4" d="M460.8,75.7l-.7-.6a3.3,3.3,0,0,0,1-2.3c0-1.1-.5-1.7-1.2-1.7s-1.1.6-1.5,1.4l-.5,1.1a2.1,2.1,0,0,1-2,1.7,2.2,2.2,0,0,1-2.1-2.5,3.6,3.6,0,0,1,1-2.5l.6.6a2.9,2.9,0,0,0-.7,1.9c0,.9.4,1.5,1.1,1.5s1.1-.7,1.4-1.4l.4-1.1a2.2,2.2,0,0,1,2.1-1.7c1.3,0,2.3,1,2.3,2.8A4,4,0,0,1,460.8,75.7Z"/><path class="cls-4" d="M458.9,68.6a2.8,2.8,0,0,1-3-2.9,3.1,3.1,0,1,1,3,2.9Zm0-4.7c-1.3,0-2.2.7-2.2,1.8a2,2,0,0,0,2.2,1.9c1.4,0,2.3-.8,2.3-1.9S460.3,63.9,458.9,63.9Z"/><path class="cls-4" d="M456,61v-.8h1a2.9,2.9,0,0,1-1.1-2.2c0-1.4.8-2.1,2.3-2.1h3.6v1h-3.5c-1.1,0-1.6.4-1.6,1.4s.4,1.1,1.1,1.8h4v1Z"/><path class="cls-4" d="M456,53.8V53h1a2.9,2.9,0,0,1-1.1-2.2c0-1.4.8-2.1,2.3-2.1h3.6v1h-3.5c-1.1,0-1.6.4-1.6,1.4s.4,1.1,1.1,1.8h4v1Z"/><path class="cls-4" d="M459.6,45.2h-2.8v1.7h-.7V45.2h-1.9v-.8H456V41.4h.8v2.9h2.8c1,0,1.6-.4,1.6-1.5a2.9,2.9,0,0,0-.3-1.4l.7-.2A4.8,4.8,0,0,1,462,43C462,44.7,461,45.2,459.6,45.2Z"/><path class="cls-4" d="M460.3,39.5c-1.3,0-1.9-1.2-2.2-4.2-.8,0-1.4.4-1.4,1.6a3.5,3.5,0,0,0,.7,2l-.7.4a5,5,0,0,1-.8-2.6,2.2,2.2,0,0,1,2.4-2.4h3.5v.8H461a3.7,3.7,0,0,1,1,2.3A1.7,1.7,0,0,1,460.3,39.5Zm0-4.2h-1.5c.2,2.5.7,3.3,1.4,3.3s1-.6,1-1.3A3,3,0,0,0,460.3,35.3Z"/><path class="cls-4" d="M462.9,32.5c-.5,0-.9-.4-1.3-1h0a1.2,1.2,0,0,1-1,.6,1.5,1.5,0,0,1-1.1-.7h0a2,2,0,0,1-1.6.7,2.1,2.1,0,0,1-2-2.3,1.9,1.9,0,0,1,.1-.8V26.6h.8v1.5a1.7,1.7,0,0,1,1.2-.5,2.1,2.1,0,0,1,2,2.2,3.6,3.6,0,0,1-.2,1,.7.7,0,0,0,.6.5c.5,0,.7-.5.7-1.2V28.7c0-1.5.4-2.2,1.4-2.2s2,1.3,2,3.3S463.9,32.5,462.9,32.5Zm-5-4a1.3,1.3,0,0,0-1.3,1.3,1.3,1.3,0,0,0,1.3,1.4,1.3,1.3,0,0,0,1.4-1.4A1.3,1.3,0,0,0,457.9,28.5Zm4.7-1c-.5,0-.7.4-.7,1.3V30a2.8,2.8,0,0,1-.1.9,1.3,1.3,0,0,0,1,.7c.6,0,1-.7,1-1.9S463.2,27.5,462.6,27.5Z"/><path class="cls-4" d="M458.9,25.3a2.9,2.9,0,0,1-3-3,2.4,2.4,0,0,1,2.7-2.6h.6v4.6a2.1,2.1,0,0,0,2-2.3,2.5,2.5,0,0,0-.6-1.7l.7-.4a3.9,3.9,0,0,1,.7,2.3A3,3,0,0,1,458.9,25.3Zm-.5-1V20.6a1.6,1.6,0,0,0-1.8,1.7A2,2,0,0,0,458.4,24.3Z"/><path class="cls-4" d="M475.4,75.3V73.2h-5.6v1.6h-.7a7.4,7.4,0,0,0-.5-1.9v-.7h6.8v-2h.8v5.1Z"/><path class="cls-4" d="M472.4,68.5c-2.6,0-4-1.1-4-2.8s1.4-2.7,4-2.7,4,1,4,2.7S474.9,68.5,472.4,68.5Zm0-4.6c-2.2,0-3.2.8-3.2,1.8s1,1.8,3.2,1.8,3.2-.7,3.2-1.8S474.6,63.9,472.4,63.9Zm-.1,2.6a.8.8,0,0,1-.8-.8.8.8,0,0,1,1.6,0A.8.8,0,0,1,472.3,66.5Z"/><path class="cls-4" d="M474.1,57.7v4h-.6l-4.9-3.9v-1h4.7V55.6h.8v1.2h2.1v.9Zm-.8,0h-3.7l1.1.8,2.6,2.1Z"/><path class="cls-4" d="M578.2,258.2l-.6-.6a2.2,2.2,0,0,0,1.1-1.7c0-1.2-.6-1.7-1.9-1.7h-4.4v3.3h-.9v-4.3h5.4a2.3,2.3,0,0,1,2.6,2.6A2.8,2.8,0,0,1,578.2,258.2Z"/><path class="cls-4" d="M577.9,251c-1.3,0-1.9-1.2-2.2-4.2a1.4,1.4,0,0,0-1.5,1.5,4,4,0,0,0,.7,2l-.6.4a4.7,4.7,0,0,1-.9-2.6,2.1,2.1,0,0,1,2.4-2.3h3.6v.8h-.8a3.9,3.9,0,0,1,.9,2.3C579.5,250.1,578.9,251,577.9,251Zm0-4.2h-1.5c.2,2.4.7,3.2,1.4,3.2s1-.6,1-1.3A3.3,3.3,0,0,0,577.9,246.8Z"/><path class="cls-4" d="M570.9,243.6v-1h3.7a2.9,2.9,0,0,1-1.2-2.2c0-1.4.8-2,2.4-2h3.6v1h-3.5c-1.1,0-1.6.3-1.6,1.3a2.2,2.2,0,0,0,1,1.8h4.1v1Z"/><path class="cls-4" d="M573.6,235.8V235H575a3.3,3.3,0,0,1-1.6-2.6,2.4,2.4,0,0,1,.3-1.2l.8.2a4.3,4.3,0,0,0-.2,1.1,2.8,2.8,0,0,0,1.7,2.4h3.4v1Z"/><path class="cls-4" d="M578.5,222.5l-.7-.5a3.2,3.2,0,0,0,.9-2.2c0-1.1-.5-1.9-1.4-1.9s-1.5.8-1.5,2.8h-.7c0-1.8-.7-2.5-1.5-2.5s-1.2.6-1.2,1.6a2.5,2.5,0,0,0,.8,1.8l-.6.6a3.7,3.7,0,0,1-1-2.5c0-1.4.7-2.5,2-2.5a2,2,0,0,1,1.8,1.6h0a2.1,2.1,0,0,1,2-1.9c1.3,0,2.1,1.3,2.1,2.8A4.2,4.2,0,0,1,578.5,222.5Z"/><path class="cls-4" d="M575.9,215c-3.1,0-4.3-1.5-4.3-3.2a3.3,3.3,0,0,1,.8-2.1l.6.5a2.8,2.8,0,0,0-.6,1.6c0,1.2.9,2.3,3.3,2.3a3.2,3.2,0,0,1-1-2.2,2.2,2.2,0,0,1,2.4-2.4,2.4,2.4,0,0,1,2.4,2.6C579.5,213.8,578.3,215,575.9,215Zm1.2-4.5a1.4,1.4,0,0,0-1.6,1.6,2.8,2.8,0,0,0,1,2c1.5-.2,2.3-.9,2.3-2A1.6,1.6,0,0,0,577.1,210.5Z"/><path class="cls-4" d="M578.5,208.1l-.6-.5a3.2,3.2,0,0,0,.8-2.2,1.7,1.7,0,0,0-1.7-1.9c-1.1,0-1.7.7-1.7,1.9a2.7,2.7,0,0,0,.5,1.5l-.4.6-3.6-.3v-4.3h.8v3.4l2.3.2a2.9,2.9,0,0,1-.3-1.4c0-1.5.7-2.6,2.4-2.6a2.6,2.6,0,0,1,2.5,2.8A4,4,0,0,1,578.5,208.1Z"/><path class="cls-4" d="M572.4,191.3v2.5h-.9v-6.1h.9v2.5h7v1.1Z"/><path class="cls-4" d="M577.9,186.2c-1.3,0-1.9-1.2-2.2-4.2a1.4,1.4,0,0,0-1.5,1.5,4,4,0,0,0,.7,2l-.6.4a4.7,4.7,0,0,1-.9-2.6,2.1,2.1,0,0,1,2.4-2.3h3.6v.8h-.8a3.9,3.9,0,0,1,.9,2.3C579.5,185.3,578.9,186.2,577.9,186.2Zm0-4.2h-1.5c.2,2.4.7,3.2,1.4,3.2s1-.6,1-1.3A3.3,3.3,0,0,0,577.9,182Z"/><path class="cls-4" d="M580.5,179.1a1.6,1.6,0,0,1-1.3-1h-.1a.9.9,0,0,1-.9.6,1.3,1.3,0,0,1-1.1-.7H577a1.8,1.8,0,0,1-1.5.7,2.1,2.1,0,0,1-2.1-2.2,2,2,0,0,1,.2-.9v-2.4h.8v1.5a1.7,1.7,0,0,1,1.2-.5,2.1,2.1,0,0,1,2,2.3,1.6,1.6,0,0,1-.3.9c.2.3.4.5.7.5s.7-.4.7-1.2v-1.3c0-1.5.4-2.2,1.4-2.2s2,1.2,2,3.2S581.5,179.1,580.5,179.1Zm-5-4a1.3,1.3,0,0,0-1.3,1.4,1.3,1.3,0,0,0,1.3,1.3,1.3,1.3,0,0,0,1.4-1.3A1.3,1.3,0,0,0,575.5,175.1Zm4.7-1c-.5,0-.7.5-.7,1.4v1.1a2.8,2.8,0,0,1-.1.9c.3.5.6.7,1,.7s1-.6,1-1.9S580.8,174.1,580.2,174.1Z"/><path class="cls-4" d="M576.5,171.9a3,3,0,0,1-3.1-2.9,2.5,2.5,0,0,1,2.8-2.7h.6v4.6a2.1,2.1,0,0,0,2-2.2,3.5,3.5,0,0,0-.6-1.8l.7-.4a5.2,5.2,0,0,1,.6,2.3A2.9,2.9,0,0,1,576.5,171.9Zm-.5-1v-3.7c-1.2.1-1.8.7-1.8,1.7A2,2,0,0,0,576,170.9Z"/><path class="cls-4" d="M310.7,94.4h4.8v.8h-3.8v2.7h3.2v.8h-3.2v3.5h-1Z"/><path class="cls-4" d="M317.1,99.3a2.9,2.9,0,0,1,3-3,2.5,2.5,0,0,1,2.7,2.7c0,.2-.1.4-.1.6h-4.6a2.1,2.1,0,0,0,2.3,2,3,3,0,0,0,1.8-.6l.3.7a3.8,3.8,0,0,1-2.2.7A3,3,0,0,1,317.1,99.3Zm1-.5h3.8a1.7,1.7,0,0,0-1.8-1.8A2.1,2.1,0,0,0,318.1,98.8Z"/><path class="cls-4" d="M327.3,97.2h-2.7v-.8h3.7v5.8h-1Zm-.4-2.8a.8.8,0,0,1,.8-.8.9.9,0,0,1,.8.8.8.8,0,0,1-.8.8A.7.7,0,0,1,326.9,94.4Z"/><path class="cls-4" d="M331.5,99.3a2.9,2.9,0,0,1,3-3,2.5,2.5,0,0,1,2.7,2.7c0,.2-.1.4-.1.6h-4.6a2.1,2.1,0,0,0,2.3,2,3,3,0,0,0,1.8-.6l.3.7a3.8,3.8,0,0,1-2.2.7A3,3,0,0,1,331.5,99.3Zm1-.5h3.8a1.7,1.7,0,0,0-1.8-1.8A2.1,2.1,0,0,0,332.5,98.8Z"/><path class="cls-4" d="M339.7,96.4h.8v1.4h0a2.9,2.9,0,0,1,2.6-1.5,2,2,0,0,1,1.1.2l-.2.8-1.1-.2a2.9,2.9,0,0,0-2.4,1.7v3.4h-.9Z"/><path class="cls-4" d="M347.6,100V97.2h-1.7v-.7h1.7V94.5h.9v1.9h2.8v.8h-2.8V100c0,1,.3,1.6,1.4,1.6a2.9,2.9,0,0,0,1.4-.3l.3.7a5.3,5.3,0,0,1-1.9.4C348.1,102.4,347.6,101.4,347.6,100Z"/><path class="cls-4" d="M353.3,100.7c0-1.3,1.2-1.9,4.2-2.2,0-.8-.4-1.4-1.5-1.4a3.8,3.8,0,0,0-2.1.7l-.4-.7a5,5,0,0,1,2.6-.8,2.2,2.2,0,0,1,2.4,2.4v3.5h-.8v-.8h0a4.3,4.3,0,0,1-2.3,1A1.8,1.8,0,0,1,353.3,100.7Zm4.2,0V99.2c-2.5.2-3.3.7-3.3,1.4s.7,1,1.3,1A3,3,0,0,0,357.5,100.7Z"/><path class="cls-4" d="M360.4,103.3c0-.5.3-.9.9-1.3h0a1.2,1.2,0,0,1-.6-1,1.5,1.5,0,0,1,.7-1.1h0a2,2,0,0,1-.7-1.6,2.1,2.1,0,0,1,2.3-2h3.3v.8h-1.5a2.2,2.2,0,0,1,.5,1.2,2.1,2.1,0,0,1-2.3,2l-1-.2a.6.6,0,0,0-.4.6c0,.5.4.7,1.2.7h1.3c1.5,0,2.2.4,2.2,1.4s-1.3,2-3.2,2S360.4,104.3,360.4,103.3Zm4.9-.3c0-.5-.4-.7-1.3-.7h-2c-.6.3-.8.7-.8,1s.7,1,1.9,1S365.3,103.6,365.3,103Zm-1-4.7a1.3,1.3,0,0,0-2.6,0,1.3,1.3,0,1,0,2.6,0Z"/><path class="cls-4" d="M367.5,99.3a2.9,2.9,0,0,1,3-3,2.5,2.5,0,0,1,2.7,2.7c0,.2-.1.4-.1.6h-4.6a2.1,2.1,0,0,0,2.3,2,3,3,0,0,0,1.8-.6l.3.7a3.8,3.8,0,0,1-2.2.7A3,3,0,0,1,367.5,99.3Zm1-.5h3.8a1.7,1.7,0,0,0-1.8-1.8A2.1,2.1,0,0,0,368.5,98.8Z"/><path class="cls-4" d="M310.1,113.7v-4.9h1v4.9c0,1.6.7,2.2,1.6,2.2s1.7-.6,1.7-2.2v-4.9h1v4.9c0,2.2-1.1,3.1-2.7,3.1S310.1,115.9,310.1,113.7Z"/><path class="cls-4" d="M318.1,110.8h.8v1.4h0a2.9,2.9,0,0,1,2.6-1.5,2,2,0,0,1,1.1.2l-.2.8-1.1-.2a2.9,2.9,0,0,0-2.4,1.7v3.4h-.9Z"/><path class="cls-4" d="M326.5,114.7v-5.8h-2v-.8h3v6.6c0,.9.4,1.3,1.1,1.3l1.1-.3.2.7a2.6,2.6,0,0,1-1.5.4C327.2,116.8,326.5,116.1,326.5,114.7Z"/><path class="cls-4" d="M331.7,115.1c0-1.3,1.2-1.9,4.2-2.2,0-.8-.4-1.4-1.5-1.4a3.8,3.8,0,0,0-2.1.7l-.4-.7a5,5,0,0,1,2.6-.8,2.2,2.2,0,0,1,2.4,2.4v3.5h-.8v-.8h0a4.3,4.3,0,0,1-2.3,1A1.8,1.8,0,0,1,331.7,115.1Zm4.2,0v-1.5c-2.5.2-3.3.7-3.3,1.4s.7,1,1.3,1A3,3,0,0,0,335.9,115.1Z"/><path class="cls-4" d="M338.8,114.4v-3.6h1v3.5c0,1.1.4,1.6,1.4,1.6s1.1-.3,1.8-1.1v-4h1v5.8h-.8v-1H343a2.7,2.7,0,0,1-2.1,1.2Q338.8,116.8,338.8,114.4Z"/><path class="cls-4" d="M347.1,116h0v.6h-.8v-8.5h1v3.4h0a3,3,0,0,1,2-.8c1.5,0,2.4,1.1,2.4,2.9s-1.3,3.2-2.7,3.2A3.1,3.1,0,0,1,347.1,116Zm3.5-2.4c0-1.3-.5-2.1-1.7-2.1a2.6,2.6,0,0,0-1.7.9v2.9a2.5,2.5,0,0,0,1.6.6C349.8,115.9,350.6,115.1,350.6,113.6Z"/><path class="cls-4" d="M310.3,123.2h1v3.9h0l3.3-3.9h1.2l-2.5,2.9,2.8,4.9h-1.2l-2.3-4.1-1.3,1.6V131h-1Z"/><path class="cls-4" d="M318.1,125.2h.8v1.4h0a2.9,2.9,0,0,1,2.6-1.5,2,2,0,0,1,1.1.2l-.2.8-1.1-.2a2.9,2.9,0,0,0-2.4,1.7V131h-.9Z"/><path class="cls-4" d="M324.5,129.5c0-1.3,1.2-1.9,4.2-2.2,0-.8-.4-1.4-1.5-1.4a3.8,3.8,0,0,0-2.1.7l-.4-.7a5,5,0,0,1,2.6-.8,2.2,2.2,0,0,1,2.4,2.4V131h-.8v-.8h0a4.3,4.3,0,0,1-2.3,1A1.8,1.8,0,0,1,324.5,129.5Zm4.2,0V128c-2.5.2-3.3.7-3.3,1.4s.7,1,1.3,1A3,3,0,0,0,328.7,129.5Z"/><path class="cls-4" d="M331.8,125.2h.8v1h.1a2.8,2.8,0,0,1,2.2-1.1c1.3,0,2,.8,2,2.3V131h-1v-3.5c0-1.1-.4-1.6-1.3-1.6s-1.2.4-1.9,1.1v4h-1Z"/><path class="cls-4" d="M339.2,122.5h1v5.8h0l3.2-3.1h1.1l-2.3,2.3,2.6,3.5h-1.1l-2.2-2.9-1.3,1.3V131h-1Z"/><path class="cls-4" d="M346.2,122.5h1v3.7h.1a2.8,2.8,0,0,1,2.2-1.1c1.3,0,2,.8,2,2.3V131h-1v-3.5c0-1.1-.4-1.6-1.3-1.6s-1.2.4-1.9,1.1v4h-1Z"/><path class="cls-4" d="M353.1,128.1a2.9,2.9,0,0,1,3-3,2.5,2.5,0,0,1,2.7,2.7c0,.2-.1.4-.1.6h-4.6a2.1,2.1,0,0,0,2.3,2,3,3,0,0,0,1.8-.6l.3.7a3.8,3.8,0,0,1-2.2.7A3,3,0,0,1,353.1,128.1Zm1-.5h3.8a1.7,1.7,0,0,0-1.8-1.8A2.1,2.1,0,0,0,354.1,127.6Z"/><path class="cls-4" d="M363.3,126h-2.7v-.8h3.7V131h-1Zm-.4-2.8a.8.8,0,0,1,.8-.8.9.9,0,0,1,.8.8.8.8,0,0,1-.8.8A.7.7,0,0,1,362.9,123.2Z"/><path class="cls-4" d="M369.2,128.8V126h-1.7v-.7h1.7v-1.9h.9v1.9H373v.8h-2.8v2.8c0,1,.3,1.6,1.4,1.6a2.9,2.9,0,0,0,1.4-.3l.3.7a5.3,5.3,0,0,1-1.9.4C369.7,131.2,369.2,130.2,369.2,128.8Z"/><path class="cls-4" d="M374.8,130.3l.4-.7a4.1,4.1,0,0,0,2.5.8c1,0,1.5-.4,1.5-.9s-.2-.8-1.8-1.1-2.3-.8-2.3-1.7.8-1.6,2.4-1.6a4.5,4.5,0,0,1,2.4.7l-.5.6a3.9,3.9,0,0,0-1.9-.6c-1,0-1.4.4-1.4.9s.5.7,1.7.9,2.4.9,2.4,1.8-.9,1.8-2.6,1.8A4.9,4.9,0,0,1,374.8,130.3Z"/><path class="cls-4" d="M383.6,128.8V126h-1.7v-.7h1.7v-1.9h.9v1.9h2.8v.8h-2.8v2.8c0,1,.3,1.6,1.4,1.6a2.9,2.9,0,0,0,1.4-.3l.3.7a5.3,5.3,0,0,1-1.9.4C384.1,131.2,383.6,130.2,383.6,128.8Z"/><path class="cls-4" d="M389.3,129.5c0-1.3,1.2-1.9,4.2-2.2,0-.8-.4-1.4-1.5-1.4a3.8,3.8,0,0,0-2.1.7l-.4-.7a5,5,0,0,1,2.6-.8,2.2,2.2,0,0,1,2.4,2.4V131h-.8v-.8h0a4.3,4.3,0,0,1-2.3,1A1.8,1.8,0,0,1,389.3,129.5Zm4.2,0V128c-2.5.2-3.3.7-3.3,1.4s.7,1,1.3,1A3,3,0,0,0,393.5,129.5Z"/><path class="cls-4" d="M396.4,132.1c0-.5.3-.9.9-1.3h0a1.2,1.2,0,0,1-.6-1,1.5,1.5,0,0,1,.7-1.1h0a2,2,0,0,1-.7-1.6,2.1,2.1,0,0,1,2.3-2h3.3v.8h-1.5a2.2,2.2,0,0,1,.5,1.2,2.1,2.1,0,0,1-2.3,2l-1-.2a.6.6,0,0,0-.4.6c0,.5.4.7,1.2.7h1.3c1.5,0,2.2.4,2.2,1.4s-1.3,2-3.2,2S396.4,133.1,396.4,132.1Zm4.9-.3c0-.5-.4-.7-1.3-.7h-2c-.6.3-.8.7-.8,1s.7,1,1.9,1S401.3,132.4,401.3,131.8Zm-1-4.7a1.3,1.3,0,1,0-2.6,0,1.3,1.3,0,1,0,2.6,0Z"/><path class="cls-4" d="M403.5,128.1a2.9,2.9,0,0,1,3-3,2.5,2.5,0,0,1,2.7,2.7c0,.2-.1.4-.1.6h-4.6a2.1,2.1,0,0,0,2.3,2,3,3,0,0,0,1.8-.6l.3.7a3.8,3.8,0,0,1-2.2.7A3,3,0,0,1,403.5,128.1Zm1-.5h3.8a1.7,1.7,0,0,0-1.8-1.8A2.1,2.1,0,0,0,404.5,127.6Z"/><path class="cls-4" d="M310,144.7l.4-.7a4.1,4.1,0,0,0,2.5.8c1,0,1.5-.4,1.5-.9s-.2-.8-1.8-1.1-2.3-.8-2.3-1.7.8-1.6,2.4-1.6a4.5,4.5,0,0,1,2.4.7l-.5.6a3.9,3.9,0,0,0-1.9-.6c-1,0-1.4.4-1.4.9s.5.7,1.7.9,2.4.9,2.4,1.8-.9,1.8-2.6,1.8A4.9,4.9,0,0,1,310,144.7Z"/><path class="cls-4" d="M317,142.5a2.9,2.9,0,1,1,2.9,3.1A2.9,2.9,0,0,1,317,142.5Zm4.8,0a1.9,1.9,0,1,0-3.8,0c0,1.4.8,2.3,1.9,2.3S321.8,143.9,321.8,142.5Z"/><path class="cls-4" d="M324.6,139.6h.8v1h.1a2.8,2.8,0,0,1,2.2-1.1c1.3,0,2,.8,2,2.3v3.6h-1v-3.5c0-1.1-.4-1.6-1.3-1.6s-1.2.4-1.9,1.1v4h-1Z"/><path class="cls-4" d="M331.6,144.7l.4-.7a4.1,4.1,0,0,0,2.5.8c1,0,1.5-.4,1.5-.9s-.2-.8-1.8-1.1-2.3-.8-2.3-1.7.8-1.6,2.4-1.6a4.5,4.5,0,0,1,2.4.7l-.5.6a3.9,3.9,0,0,0-1.9-.6c-1,0-1.4.4-1.4.9s.5.7,1.7.9,2.4.9,2.4,1.8-.9,1.8-2.6,1.8A4.9,4.9,0,0,1,331.6,144.7Z"/><path class="cls-4" d="M340.4,143.2v-2.8h-1.7v-.7h1.7v-1.9h.9v1.9h2.8v.8h-2.8v2.8c0,1,.3,1.6,1.4,1.6a2.9,2.9,0,0,0,1.4-.3l.3.7a5.3,5.3,0,0,1-1.9.4C340.9,145.6,340.4,144.6,340.4,143.2Z"/><path class="cls-4" d="M348.9,140.4h-2.7v-.8h3.7v5.8h-1Zm-.4-2.8a.8.8,0,0,1,.8-.8.9.9,0,0,1,.8.8.8.8,0,0,1-.8.8A.7.7,0,0,1,348.5,137.6Z"/><path class="cls-4" d="M353.2,146.5c0-.5.3-.9.9-1.3h0a1.2,1.2,0,0,1-.6-1,1.5,1.5,0,0,1,.7-1.1h0a2,2,0,0,1-.7-1.6,2.1,2.1,0,0,1,2.3-2h3.3v.8h-1.5a2.2,2.2,0,0,1,.5,1.2,2.1,2.1,0,0,1-2.3,2l-1-.2a.6.6,0,0,0-.4.6c0,.5.4.7,1.2.7h1.3c1.5,0,2.2.4,2.2,1.4s-1.3,2-3.2,2S353.2,147.5,353.2,146.5Zm4.9-.3c0-.5-.4-.7-1.3-.7h-2c-.6.3-.8.7-.8,1s.7,1,1.9,1S358.1,146.8,358.1,146.2Zm-1-4.7a1.3,1.3,0,0,0-2.6,0,1.3,1.3,0,1,0,2.6,0Z"/><path class="cls-4" d="M360.3,142.5a2.9,2.9,0,0,1,3-3,2.5,2.5,0,0,1,2.7,2.7c0,.2-.1.4-.1.6h-4.6a2.1,2.1,0,0,0,2.3,2,3,3,0,0,0,1.8-.6l.3.7a3.8,3.8,0,0,1-2.2.7A3,3,0,0,1,360.3,142.5Zm1-.5h3.8a1.7,1.7,0,0,0-1.8-1.8A2.1,2.1,0,0,0,361.3,142Z"/><path class="cls-4" d="M309.6,152h1.1l1.3,4.2a25,25,0,0,0,.7,2.6h.1a25,25,0,0,1,.7-2.6l1.3-4.2h1l-2.5,7.8h-1.2Z"/><path class="cls-4" d="M317.1,156.9a2.9,2.9,0,0,1,3-3,2.5,2.5,0,0,1,2.7,2.7c0,.2-.1.4-.1.6h-4.6a2.1,2.1,0,0,0,2.3,2,3,3,0,0,0,1.8-.6l.3.7a3.8,3.8,0,0,1-2.2.7A3,3,0,0,1,317.1,156.9Zm1-.5h3.8a1.7,1.7,0,0,0-1.8-1.8A2.1,2.1,0,0,0,318.1,156.4Z"/><path class="cls-4" d="M325.3,154h.8v1.4h0a2.9,2.9,0,0,1,2.6-1.5,2,2,0,0,1,1.1.2l-.2.8-1.1-.2a2.9,2.9,0,0,0-2.4,1.7v3.4h-.9Z"/><path class="cls-4" d="M331.8,151.3h1V155h.1a2.8,2.8,0,0,1,2.2-1.1c1.3,0,2,.8,2,2.3v3.6h-1v-3.5c0-1.1-.4-1.6-1.3-1.6s-1.2.4-1.9,1.1v4h-1Z"/><path class="cls-4" d="M341.7,154.8H339V154h3.7v5.8h-1Zm-.4-2.8a.8.8,0,0,1,.8-.8.9.9,0,0,1,.8.8.8.8,0,0,1-.8.8A.7.7,0,0,1,341.3,152Z"/><path class="cls-4" d="M346.2,154h.8v1h.1a2.8,2.8,0,0,1,2.2-1.1c1.3,0,2,.8,2,2.3v3.6h-1v-3.5c0-1.1-.4-1.6-1.3-1.6s-1.2.4-1.9,1.1v4h-1Z"/><path class="cls-4" d="M353,156.9a2.8,2.8,0,0,1,2.7-3,2.2,2.2,0,0,1,1.7.7h.1v-3.3h1v8.5h-.8v-.7h0a2.8,2.8,0,0,1-1.9.9C354,160,353,158.9,353,156.9Zm4.4,1.4v-2.9a2.1,2.1,0,0,0-1.5-.7,2,2,0,0,0-1.9,2.2c0,1.4.7,2.2,1.8,2.2A2.4,2.4,0,0,0,357.4,158.3Z"/><path class="cls-4" d="M360.3,156.9a2.9,2.9,0,0,1,3-3,2.5,2.5,0,0,1,2.7,2.7c0,.2-.1.4-.1.6h-4.6a2.1,2.1,0,0,0,2.3,2,3,3,0,0,0,1.8-.6l.3.7a3.8,3.8,0,0,1-2.2.7A3,3,0,0,1,360.3,156.9Zm1-.5h3.8a1.7,1.7,0,0,0-1.8-1.8A2.1,2.1,0,0,0,361.3,156.4Z"/><path class="cls-4" d="M368.5,154h.8v1.4h0a2.9,2.9,0,0,1,2.6-1.5,2.5,2.5,0,0,1,1.2.2l-.3.8-1.1-.2a2.9,2.9,0,0,0-2.4,1.7v3.4h-.9Z"/><path class="cls-4" d="M374.8,157.6V154h1v3.5c0,1.1.4,1.6,1.4,1.6s1.1-.3,1.8-1.1v-4h1v5.8h-.8v-1H379a2.7,2.7,0,0,1-2.1,1.2Q374.8,160,374.8,157.6Z"/><path class="cls-4" d="M382.2,154h.8v1h.1a2.8,2.8,0,0,1,2.2-1.1c1.3,0,2,.8,2,2.3v3.6h-1v-3.5c0-1.1-.4-1.6-1.3-1.6s-1.2.4-1.9,1.1v4h-1Z"/><path class="cls-4" d="M389.2,160.9c0-.5.3-.9.9-1.3h0a1.2,1.2,0,0,1-.6-1,1.5,1.5,0,0,1,.7-1.1h0a2,2,0,0,1-.7-1.6,2.1,2.1,0,0,1,2.3-2h3.3v.8h-1.5a2.2,2.2,0,0,1,.5,1.2,2.1,2.1,0,0,1-2.3,2l-1-.2a.6.6,0,0,0-.4.6c0,.5.4.7,1.2.7h1.3c1.5,0,2.2.4,2.2,1.4s-1.3,2-3.2,2S389.2,161.9,389.2,160.9Zm4.9-.3c0-.5-.4-.7-1.3-.7h-2c-.6.3-.8.7-.8,1s.7,1,1.9,1S394.1,161.2,394.1,160.6Zm-1-4.7a1.3,1.3,0,0,0-2.6,0,1.3,1.3,0,1,0,2.6,0Z"/><path class="cls-4" d="M396.3,156.9a2.9,2.9,0,0,1,3-3,2.5,2.5,0,0,1,2.7,2.7c0,.2-.1.4-.1.6h-4.6a2.1,2.1,0,0,0,2.3,2,3,3,0,0,0,1.8-.6l.3.7a3.8,3.8,0,0,1-2.2.7A3,3,0,0,1,396.3,156.9Zm1-.5h3.8a1.7,1.7,0,0,0-1.8-1.8A2.1,2.1,0,0,0,397.3,156.4Z"/><path class="cls-4" d="M403.8,154h.8v1h.1a2.8,2.8,0,0,1,2.2-1.1c1.3,0,2,.8,2,2.3v3.6h-1v-3.5c0-1.1-.4-1.6-1.3-1.6s-1.2.4-1.9,1.1v4h-1Z"/></svg>